<svg width="20" height="20" viewBox="0 0 20 20" fill="none" xmlns="http://www.w3.org/2000/svg">
<path d="M7.18687 15.7357L6.55946 15.0963C6.39336 14.9271 6.30005 14.6975 6.30005 14.4581C6.30005 14.2188 6.39336 13.9892 6.55946 13.82L10.3091 10.0013L6.5602 6.18155C6.4779 6.09774 6.41261 5.99822 6.36807 5.88868C6.32353 5.77914 6.3006 5.66174 6.3006 5.54317C6.3006 5.4246 6.32353 5.3072 6.36807 5.19766C6.41261 5.08813 6.4779 4.98861 6.5602 4.90479L7.1876 4.26547C7.26989 4.18132 7.36767 4.11456 7.47534 4.069C7.583 4.02345 7.69843 4 7.81501 4C7.93159 4 8.04702 4.02345 8.15468 4.069C8.26235 4.11456 8.36013 4.18132 8.44242 4.26547L13.4406 9.36199C13.6067 9.53126 13.7 9.76082 13.7 10.0002C13.7 10.2396 13.6067 10.4691 13.4406 10.6384L8.43947 15.7357C8.27336 15.9049 8.04807 16 7.81317 16C7.57826 16 7.35298 15.9049 7.18687 15.7357V15.7357Z" fill="#4F00A3"/>
</svg>


