<svg width="112" height="31" viewBox="0 0 112 31" fill="none" xmlns="http://www.w3.org/2000/svg">
<path d="M2.94611 18.7723C1.39805 20.9224 0.624023 23.3304 0.624023 25.1795C0.624023 27.7166 2.00008 29.5657 4.53717 29.5657C6.25724 29.5657 8.19231 28.2326 9.43936 27.0286C9.78337 28.6196 11.0304 29.7377 13.1805 29.7377C15.8036 29.7377 18.5557 27.4586 19.6737 25.0935C20.2758 23.8465 20.0178 22.6854 19.8458 22.2984C19.4157 21.3954 19.0287 21.4384 18.5557 22.2984C17.1367 25.0935 14.9866 28.0176 13.4385 28.0176C13.0085 28.0176 12.8365 27.6306 12.8365 26.9856C12.8365 24.1045 16.4486 19.4173 17.5667 17.0522C18.6847 14.8161 18.2977 12.9241 17.5667 12.064C17.0506 11.462 16.3196 11.505 15.8036 12.365L14.9866 13.6981C14.5996 12.58 13.6535 11.806 12.1055 11.806C9.91238 11.806 6.38624 13.8271 2.94611 18.7723ZM5.09619 27.6736C4.66618 27.6736 4.49417 27.1576 4.49417 26.3836C4.49417 25.0075 5.2252 22.7284 6.51525 20.7073C8.70833 17.1812 11.6754 14.4721 12.5355 14.4721C12.9655 14.4721 13.0515 14.7731 13.0515 15.2891C13.0515 16.4072 12.2775 18.5143 10.6004 21.4384C8.49332 25.0505 6.51525 27.6736 5.09619 27.6736Z" fill="#BCBCBC"/>
<path d="M23.4246 27.6306C22.4786 27.6306 21.5756 26.1256 21.0595 24.1045C22.3496 22.2554 23.5536 20.4063 24.5857 18.7723C24.6717 19.9333 24.7147 21.3094 24.7147 22.6854C24.7147 25.4805 24.3277 27.6306 23.4246 27.6306ZM17.5334 23.5025C17.5334 24.4915 17.7914 25.5235 18.2644 26.3406C19.7265 29.0497 22.3066 29.7377 24.8867 29.6517C28.1118 29.5227 31.1219 27.8886 32.756 24.8785C33.53 23.5455 33.401 22.3414 33.186 21.9114C32.885 21.2234 32.24 20.9224 31.853 21.9114C31.0789 24.0185 29.8749 25.4375 28.1118 26.6416C28.5848 25.6955 28.7998 24.4915 28.8428 23.4164C28.9288 21.0944 28.3698 18.2993 28.3698 15.2461C28.3698 14.6871 28.4128 13.9561 28.4558 13.4401C29.7889 11.247 29.5309 10.301 28.3698 10.301C27.7248 10.301 26.9508 10.602 26.2627 11.204C25.2737 12.021 24.7577 13.0101 24.5857 14.5581C23.4676 16.4072 21.9626 18.6433 20.5435 20.6643C20.4145 19.6323 19.7695 19.4173 18.9095 20.1483C17.9634 20.9654 17.5334 22.2124 17.5334 23.5025Z" fill="#BCBCBC"/>
<path d="M45.044 2.99067C45.044 2.38865 44.872 1.82963 44.614 1.31361C44.141 0.410574 43.453 0.410574 42.765 1.27061C38.9808 6.47381 32.7886 18.6003 30.8535 24.1045C30.4235 25.3515 30.2945 26.2976 30.2945 26.9856C30.2945 27.8886 30.5525 28.4906 30.9825 28.9637C31.4985 29.6087 32.1866 29.3937 32.4876 28.7917C33.8636 25.5665 35.0247 22.9434 36.1857 20.8794C36.1857 26.8996 38.7658 29.3937 41.9479 29.4367C45.6031 29.4797 47.7961 26.3836 48.6132 24.8785C49.2582 23.7605 49.3442 22.6854 49.1292 22.1264C48.7422 21.0514 48.1832 21.1374 47.6671 22.1694C46.4631 24.6635 44.098 27.6736 42.636 27.6736C41.3459 27.6736 40.3139 25.3085 40.1419 22.0834C42.679 21.2234 44.442 20.0193 45.8181 18.6863C46.8931 17.6542 47.3231 16.5792 47.3231 15.5472C47.3231 14.8161 47.1511 14.1281 46.8071 13.4831C45.8611 11.505 44.7 10.817 42.765 11.505C42.0339 11.763 41.3029 12.064 40.5289 12.623C43.109 7.93586 45.044 4.66774 45.044 2.99067ZM44.442 13.6121C44.829 14.1711 44.055 15.5902 42.3349 17.0092C40.9159 18.1703 37.9058 19.5033 36.6587 19.9333C37.9488 17.7832 39.1528 16.2352 40.6149 15.1171C42.5929 13.6121 44.098 13.0961 44.442 13.6121Z" fill="#BCBCBC"/>
<path d="M54.1604 9.99994C54.1604 11.333 55.3214 12.623 56.6975 12.623C57.7725 12.623 58.4175 11.634 58.4175 10.473C58.4175 9.22591 57.2565 7.67785 56.0525 7.67785C55.0634 7.67785 54.1604 8.79589 54.1604 9.99994ZM57.3425 25.0935C57.9015 23.9755 57.9445 22.9004 57.5575 22.1694C57.1705 21.3954 56.6115 21.3094 56.2675 22.0834C54.9344 25.0075 52.6983 27.8886 50.9783 27.8886C50.5052 27.8886 50.3332 27.5016 50.3332 26.8136C50.3332 26.1256 50.5483 25.2225 50.9353 24.2335C51.6663 22.5134 53.6444 19.2883 54.4614 17.4392C55.5794 15.2891 55.2354 13.4401 54.4184 12.58C53.8594 11.935 53.3434 12.021 52.6983 12.881C51.1073 15.1171 48.3552 20.1053 47.2801 23.1154C46.9361 24.2335 46.7641 25.1365 46.7641 25.9535C46.7641 28.1036 47.9252 29.6087 50.5483 29.6087C53.0853 29.6087 56.0525 27.8026 57.3425 25.0935Z" fill="#BCBCBC"/>
<path d="M63.4131 12.15C62.9831 11.376 62.3381 11.333 61.7791 12.15C59.156 16.1492 56.0599 22.1264 55.1568 24.7065C54.8128 25.6955 54.6838 26.4266 54.6838 27.0286C54.6838 28.0176 55.1138 28.7917 55.7158 29.3077C56.4469 29.9527 56.9199 29.6947 57.2209 29.0067C58.898 25.0505 60.876 21.1374 63.2841 18.5573C65.8642 15.7192 67.5413 14.7731 67.8853 14.7731C68.2723 14.7731 67.0683 16.4072 65.9072 18.3423C64.7462 20.1483 63.3271 22.4704 62.7251 24.0185C62.2951 25.0935 61.9511 26.4696 61.9511 27.2006C61.9511 28.3186 62.2521 28.9207 62.8971 29.5657C63.5851 30.2537 64.1872 30.1247 64.6172 29.3077C66.4232 25.3085 68.4873 21.2234 71.8415 17.8692C74.3786 15.3321 75.2816 14.9021 75.6256 14.9021C75.9696 14.9021 74.9376 16.1922 73.9915 17.6112C73.0025 19.1593 71.5834 21.4814 70.8954 22.9434C70.4224 24.0185 70.2504 24.9645 70.2504 25.7385C70.2504 28.0606 71.8415 29.6517 74.7656 29.6517C77.4317 29.6517 80.4848 27.5016 81.6888 25.0075C82.2048 24.0185 82.1618 22.3844 81.6888 21.9114C81.3018 21.5244 80.8718 21.5674 80.4848 22.2124C78.8937 24.8355 76.7866 27.8456 75.4536 27.8456C74.7656 27.8456 74.3356 27.1576 74.3356 26.1686C74.3356 24.6635 75.4536 22.7714 76.6576 20.9224C78.4207 18.2133 79.3237 16.2352 79.3237 14.7731C79.3237 13.3541 78.6357 12.193 77.3887 12.15C76.0126 12.107 73.7335 13.5691 71.7985 15.2891C71.7985 13.4831 70.8954 11.935 69.5194 11.935C68.1433 11.935 65.7352 13.5691 63.8861 15.3751C63.9722 14.9451 64.0152 14.5581 64.0152 14.2141C64.0152 13.5261 63.8001 12.795 63.4131 12.15Z" fill="#BCBCBC"/>
<path d="M82.5243 18.7723C80.9763 20.9224 80.2022 23.3304 80.2022 25.1795C80.2022 27.7166 81.5783 29.5657 84.1154 29.5657C85.8355 29.5657 87.7705 28.2326 89.0176 27.0286C89.3616 28.6196 90.6086 29.7377 92.7587 29.7377C95.3818 29.7377 98.1339 27.4586 99.252 25.0935C99.854 23.8465 99.596 22.6854 99.424 22.2984C98.994 21.3954 98.6069 21.4384 98.1339 22.2984C96.7149 25.0935 94.5648 28.0176 93.0167 28.0176C92.5867 28.0176 92.4147 27.6306 92.4147 26.9856C92.4147 24.1045 96.0268 19.4173 97.1449 17.0522C98.2629 14.8161 97.8759 12.9241 97.1449 12.064C96.6289 11.462 95.8978 11.505 95.3818 12.365L94.5648 13.6981C94.1778 12.58 93.2317 11.806 91.6837 11.806C89.4906 11.806 85.9645 13.8271 82.5243 18.7723ZM84.6744 27.6736C84.2444 27.6736 84.0724 27.1576 84.0724 26.3836C84.0724 25.0075 84.8034 22.7284 86.0935 20.7073C88.2866 17.1812 91.2537 14.4721 92.1137 14.4721C92.5437 14.4721 92.6297 14.7731 92.6297 15.2891C92.6297 16.4072 91.8557 18.5143 90.1786 21.4384C88.0715 25.0505 86.0935 27.6736 84.6744 27.6736Z" fill="#BCBCBC"/>
<path d="M97.6707 24.7925C97.6707 27.7596 99.6487 29.6087 101.928 29.6087C105.54 29.6087 108.421 25.9105 109.023 24.6205C109.496 23.6315 109.668 22.9864 109.453 22.0834C109.152 20.9224 108.163 21.0084 107.69 22.0404C106.185 25.2655 103.949 27.9746 102.272 27.9746C101.541 27.9746 101.111 27.0716 101.111 25.7815C101.111 24.8355 101.369 23.7175 101.885 22.5564C103.39 19.2883 105.841 15.0311 107.475 12.236C108.421 12.107 109.539 12.021 110.313 12.107C111.345 12.236 111.646 11.72 111.216 10.946C110.915 10.43 110.184 9.74193 108.851 9.56992C109.367 8.36588 109.539 7.37684 109.539 6.60281C109.539 6.08679 109.367 5.35576 109.066 4.83974C108.593 4.02271 108.077 3.97971 107.432 4.92575C106.443 6.3448 105.54 7.76385 104.207 10.0859C103.261 10.1719 102.1 10.2149 101.111 10.1719C100.122 10.1289 99.6917 10.559 100.294 11.462C100.638 11.978 101.412 12.451 102.745 12.623C101.025 15.7192 99.3907 19.1163 98.5307 21.2234C97.9287 22.6424 97.6707 23.8465 97.6707 24.7925Z" fill="#BCBCBC"/>
</svg>
