<svg width="185" height="65" viewBox="0 0 185 65" fill="none" xmlns="http://www.w3.org/2000/svg">
<path d="M159 13H176C180.418 13 184 16.5817 184 21V42C184 46.4183 180.418 50 176 50H5" stroke="#BCBCBC" stroke-linejoin="round"/>
<g filter="url(#filter0_d_915_3097)">
<path fill-rule="evenodd" clip-rule="evenodd" d="M162.5 16.5C164.897 14.7192 166 14 166 13C166 12 164.897 11.2808 162.5 9.5C159.808 7.5 159 7 159 4V13V22C159 19 159.808 18.5 162.5 16.5Z" fill="#BCBCBC"/>
</g>
<g filter="url(#filter1_d_915_3097)">
<path fill-rule="evenodd" clip-rule="evenodd" d="M8.5 53.5C10.897 51.7192 12 51 12 50C12 49 10.897 48.2808 8.5 46.5C5.80769 44.5 5 44 5 41L5 50L5 59C5 56 5.80769 55.5 8.5 53.5Z" fill="#BCBCBC"/>
</g>
<defs>
<filter id="filter0_d_915_3097" x="154" y="0" width="17" height="28" filterUnits="userSpaceOnUse" color-interpolation-filters="sRGB">
<feFlood flood-opacity="0" result="BackgroundImageFix"/>
<feColorMatrix in="SourceAlpha" type="matrix" values="0 0 0 0 0 0 0 0 0 0 0 0 0 0 0 0 0 0 127 0" result="hardAlpha"/>
<feOffset dy="1"/>
<feGaussianBlur stdDeviation="2.5"/>
<feColorMatrix type="matrix" values="0 0 0 0 0 0 0 0 0 0 0 0 0 0 0 0 0 0 0.04 0"/>
<feBlend mode="normal" in2="BackgroundImageFix" result="effect1_dropShadow_915_3097"/>
<feBlend mode="normal" in="SourceGraphic" in2="effect1_dropShadow_915_3097" result="shape"/>
</filter>
<filter id="filter1_d_915_3097" x="0" y="37" width="17" height="28" filterUnits="userSpaceOnUse" color-interpolation-filters="sRGB">
<feFlood flood-opacity="0" result="BackgroundImageFix"/>
<feColorMatrix in="SourceAlpha" type="matrix" values="0 0 0 0 0 0 0 0 0 0 0 0 0 0 0 0 0 0 127 0" result="hardAlpha"/>
<feOffset dy="1"/>
<feGaussianBlur stdDeviation="2.5"/>
<feColorMatrix type="matrix" values="0 0 0 0 0 0 0 0 0 0 0 0 0 0 0 0 0 0 0.04 0"/>
<feBlend mode="normal" in2="BackgroundImageFix" result="effect1_dropShadow_915_3097"/>
<feBlend mode="normal" in="SourceGraphic" in2="effect1_dropShadow_915_3097" result="shape"/>
</filter>
</defs>
</svg>
