<svg width="299" height="332" viewBox="0 0 299 332" fill="none" xmlns="http://www.w3.org/2000/svg">
<g opacity="0.24" clip-path="url(#clip0_985_3104)">
<path d="M11.0258 254.855C2.25702 239.918 -0.844472 222.238 2.30441 205.139C5.45329 188.04 14.6357 172.699 28.1254 162C41.6151 151.302 58.4832 145.983 75.5585 147.042C92.6339 148.102 108.741 155.468 120.851 167.755C132.961 180.042 140.241 196.405 141.322 213.767C142.402 231.128 137.209 248.294 126.719 262.036C116.229 275.778 101.165 285.15 84.3569 288.391C67.5492 291.632 50.1563 288.518 35.4476 279.634L2.922 290.678C0.716876 291.407 -0.551072 290.174 0.165594 287.875L11.081 254.799L11.0258 254.855Z" fill="#463C77"/>
<path d="M92.2294 207.147C104.341 194.948 120.404 187.649 137.42 186.613C154.437 185.577 171.242 190.874 184.698 201.517C198.154 212.159 207.341 227.418 210.543 244.444C213.746 261.47 210.744 279.1 202.1 294.04L212.96 327.116C213.677 329.415 212.464 330.648 210.204 329.919L177.678 318.875C162.986 327.666 145.65 330.718 128.907 327.462C112.163 324.205 97.1582 314.863 86.6931 301.179C76.2279 287.495 71.0184 270.406 72.0371 253.102C73.0559 235.798 80.2334 219.463 92.2294 207.147ZM140.577 278.175C135.45 278.175 131.315 282.66 131.315 288.266C131.315 293.872 135.45 298.357 140.577 298.357C145.704 298.357 149.893 293.872 149.893 288.266C149.893 282.66 145.704 278.175 140.577 278.175ZM122.936 221.554C120.495 224.159 118.6 227.242 117.368 230.615C116.136 233.988 115.592 237.581 115.769 241.175H130.433C130.433 231.421 135.505 227.328 140.797 227.328C143.002 226.936 145.373 227.665 147.027 229.403C148.681 231.084 149.508 233.607 149.232 236.074C149.232 242.521 148.35 243.754 142.892 248.295C139.763 250.495 137.228 253.461 135.523 256.92C133.818 260.378 132.996 264.218 133.134 268.084H146.806C147.578 263.039 150.39 258.722 154.414 256.256C157.745 254.287 160.51 251.466 162.435 248.072C164.359 244.679 165.376 240.832 165.384 236.915C165.384 229.122 160.092 214.322 141.238 214.322C137.841 214.054 134.428 214.565 131.251 215.816C128.074 217.068 125.213 219.029 122.881 221.554H122.936Z" fill="white"/>
<mask id="mask0_985_3104" style="mask-type:luminance" maskUnits="userSpaceOnUse" x="-1" y="146" width="143" height="145">
<path d="M11.0258 254.855C2.25702 239.918 -0.844472 222.238 2.30441 205.139C5.45329 188.04 14.6357 172.699 28.1254 162C41.6151 151.302 58.4832 145.983 75.5585 147.042C92.6339 148.102 108.741 155.468 120.851 167.755C132.961 180.042 140.241 196.405 141.322 213.767C142.402 231.128 137.209 248.294 126.719 262.036C116.229 275.778 101.165 285.15 84.3569 288.391C67.5492 291.632 50.1563 288.518 35.4476 279.634L2.922 290.678C0.716876 291.407 -0.551072 290.174 0.165594 287.875L11.081 254.799L11.0258 254.855Z" fill="white"/>
</mask>
<g mask="url(#mask0_985_3104)">
<path d="M92.2298 207.148C104.341 194.949 120.405 187.65 137.421 186.614C154.437 185.578 171.242 190.876 184.698 201.518C198.155 212.16 207.342 227.419 210.544 244.445C213.746 261.472 210.745 279.101 202.1 294.042L212.961 327.118C213.677 329.416 212.464 330.649 210.204 329.921L177.679 318.877C162.986 327.667 145.65 330.72 128.907 327.463C112.164 324.207 97.1587 314.864 86.6936 301.18C76.2284 287.497 71.0188 270.407 72.0376 253.103C73.0564 235.799 80.2339 219.464 92.2298 207.148ZM140.577 278.177C135.45 278.177 131.316 282.662 131.316 288.268C131.316 293.874 135.45 298.358 140.577 298.358C145.704 298.358 149.894 293.874 149.894 288.268C149.894 282.662 145.704 278.177 140.577 278.177ZM122.936 221.555C120.495 224.16 118.601 227.243 117.369 230.617C116.136 233.99 115.592 237.583 115.77 241.177H130.434C130.434 231.422 135.505 227.33 140.798 227.33C143.003 226.937 145.373 227.666 147.027 229.404C148.681 231.086 149.508 233.608 149.232 236.075C149.232 242.522 148.35 243.755 142.893 248.296C139.763 250.497 137.229 253.463 135.524 256.921C133.818 260.38 132.997 264.219 133.135 268.086H146.807C147.579 263.04 150.39 258.724 154.414 256.257C157.745 254.288 160.51 251.467 162.435 248.074C164.36 244.68 165.377 240.833 165.385 236.916C165.385 229.124 160.093 214.324 141.239 214.324C137.842 214.055 134.429 214.566 131.252 215.818C128.074 217.069 125.214 219.03 122.881 221.555H122.936Z" fill="white"/>
</g>
</g>
<g filter="url(#filter0_d_985_3104)">
<path fill-rule="evenodd" clip-rule="evenodd" d="M288.568 9.1509C285.53 5.73393 284.305 4.16314 282.582 4.14682C280.86 4.13051 279.608 5.67783 276.513 9.0367C275.676 9.94515 276.61 13.985 277.845 13.9967L282.499 14.0408L287.153 14.0849C288.389 14.0966 289.39 10.0751 288.568 9.1509Z" fill="#55516C"/>
</g>
<path d="M198.784 295.643L198.818 314.055C198.835 322.891 206.011 330.041 214.848 330.025L267.43 329.927C276.266 329.91 283.416 322.733 283.4 313.897L282.82 3.99997" stroke="#57526D" stroke-width="3" stroke-linejoin="round"/>
<defs>
<filter id="filter0_d_985_3104" x="271.193" y="0.146667" width="22.6743" height="19.9382" filterUnits="userSpaceOnUse" color-interpolation-filters="sRGB">
<feFlood flood-opacity="0" result="BackgroundImageFix"/>
<feColorMatrix in="SourceAlpha" type="matrix" values="0 0 0 0 0 0 0 0 0 0 0 0 0 0 0 0 0 0 127 0" result="hardAlpha"/>
<feOffset dy="1"/>
<feGaussianBlur stdDeviation="2.5"/>
<feColorMatrix type="matrix" values="0 0 0 0 0 0 0 0 0 0 0 0 0 0 0 0 0 0 0.04 0"/>
<feBlend mode="normal" in2="BackgroundImageFix" result="effect1_dropShadow_985_3104"/>
<feBlend mode="normal" in="SourceGraphic" in2="effect1_dropShadow_985_3104" result="shape"/>
</filter>
<clipPath id="clip0_985_3104">
<rect width="215" height="185" fill="white" transform="translate(0 146.994)"/>
</clipPath>
</defs>
</svg>
