<svg width="56" height="48" viewBox="0 0 56 48" fill="none" xmlns="http://www.w3.org/2000/svg">
<g clip-path="url(#clip0_194_2464)">
<path d="M2.87222 27.627C0.588242 23.8011 -0.219588 19.2726 0.600586 14.8929C1.42076 10.5133 3.81245 6.58397 7.32606 3.84374C10.8397 1.10351 15.2332 -0.258951 19.6807 0.0124833C24.1283 0.283918 28.3235 2.17055 31.4778 5.31773C34.6321 8.4649 36.5282 12.6559 36.8097 17.1028C37.0912 21.5497 35.7387 25.9463 33.0064 29.4661C30.2741 32.9859 26.3502 35.3864 21.9724 36.2165C17.5946 37.0466 13.0643 36.249 9.23324 33.9737L0.761448 36.8024C0.187089 36.989 -0.143167 36.6731 0.0434995 36.0844L2.88658 27.6126L2.87222 27.627Z" fill="#463C77"/>
<path d="M24.0225 15.4073C27.1771 12.2828 31.3611 10.4133 35.7932 10.1479C40.2253 9.88257 44.6025 11.2395 48.1074 13.9653C51.6122 16.6911 54.0051 20.5994 54.8392 24.9604C55.6733 29.3214 54.8916 33.8369 52.64 37.6637L55.4687 46.1355C55.6554 46.7242 55.3395 47.0401 54.7507 46.8535L46.2789 44.0247C42.4521 46.2763 37.9366 47.0581 33.5756 46.224C29.2146 45.3899 25.3063 42.997 22.5805 39.4921C19.8547 35.9873 18.4978 31.6101 18.7632 27.178C19.0285 22.7459 20.898 18.5619 24.0225 15.4073ZM36.6154 33.6001C35.28 33.6001 34.203 34.7488 34.203 36.1847C34.203 37.6206 35.28 38.7693 36.6154 38.7693C37.9507 38.7693 39.042 37.6206 39.042 36.1847C39.042 34.7488 37.9507 33.6001 36.6154 33.6001ZM32.0205 19.0976C31.3846 19.7648 30.8912 20.5544 30.5703 21.4184C30.2494 22.2824 30.1077 23.2027 30.1538 24.1232H33.9733C33.9733 21.6247 35.2943 20.5765 36.6728 20.5765C37.2471 20.476 37.8646 20.6627 38.2954 21.1078C38.7261 21.5386 38.9415 22.1847 38.8697 22.8165C38.8697 24.4678 38.64 24.7837 37.2184 25.9468C36.4033 26.5103 35.7432 27.2701 35.299 28.1559C34.8549 29.0418 34.6409 30.0252 34.6769 31.0155H38.2379C38.4389 29.7232 39.1712 28.6176 40.2195 27.9858C41.087 27.4816 41.8072 26.7589 42.3086 25.8898C42.8099 25.0206 43.0748 24.0353 43.0769 23.0319C43.0769 21.036 41.6984 17.2452 36.7877 17.2452C35.9028 17.1765 35.0139 17.3073 34.1863 17.6279C33.3588 17.9485 32.6137 18.4507 32.0061 19.0976H32.0205Z" fill="#DABFFF"/>
<mask id="mask0_194_2464" style="mask-type:luminance" maskUnits="userSpaceOnUse" x="-1" y="-1" width="38" height="38">
<path d="M2.87222 27.627C0.588242 23.8011 -0.219588 19.2726 0.600586 14.8929C1.42076 10.5133 3.81245 6.58397 7.32606 3.84374C10.8397 1.10351 15.2332 -0.258951 19.6807 0.0124833C24.1283 0.283918 28.3235 2.17055 31.4778 5.31773C34.6321 8.4649 36.5282 12.6559 36.8097 17.1028C37.0912 21.5497 35.7387 25.9463 33.0064 29.4661C30.2741 32.9859 26.3502 35.3864 21.9724 36.2165C17.5946 37.0466 13.0643 36.249 9.23324 33.9737L0.761448 36.8024C0.187089 36.989 -0.143167 36.6731 0.0434995 36.0844L2.88658 27.6126L2.87222 27.627Z" fill="white"/>
</mask>
<g mask="url(#mask0_194_2464)">
<path d="M24.0225 15.4075C27.1771 12.283 31.3611 10.4135 35.7932 10.1482C40.2253 9.88281 44.6025 11.2397 48.1074 13.9655C51.6122 16.6913 54.0051 20.5997 54.8392 24.9607C55.6733 29.3217 54.8916 33.8372 52.64 37.6639L55.4687 46.1357C55.6554 46.7245 55.3395 47.0404 54.7507 46.8537L46.2789 44.025C42.4521 46.2766 37.9366 47.0583 33.5756 46.2242C29.2146 45.3901 25.3063 42.9972 22.5805 39.4924C19.8547 35.9875 18.4978 31.6104 18.7632 27.1782C19.0285 22.7461 20.898 18.5621 24.0225 15.4075ZM36.6154 33.6004C35.28 33.6004 34.203 34.7491 34.203 36.185C34.203 37.6209 35.28 38.7696 36.6154 38.7696C37.9507 38.7696 39.042 37.6209 39.042 36.185C39.042 34.7491 37.9507 33.6004 36.6154 33.6004ZM32.0205 19.0978C31.3846 19.765 30.8912 20.5546 30.5703 21.4186C30.2494 22.2826 30.1077 23.2029 30.1538 24.1234H33.9733C33.9733 21.625 35.2943 20.5768 36.6728 20.5768C37.2471 20.4763 37.8646 20.6629 38.2954 21.1081C38.7261 21.5388 38.9415 22.185 38.8697 22.8168C38.8697 24.4681 38.64 24.7839 37.2184 25.947C36.4033 26.5106 35.7432 27.2703 35.299 28.1562C34.8549 29.042 34.6409 30.0254 34.6769 31.0157H38.2379C38.4389 29.7234 39.1712 28.6178 40.2195 27.986C41.087 27.4818 41.8072 26.7592 42.3086 25.89C42.8099 25.0209 43.0748 24.0355 43.0769 23.0322C43.0769 21.0363 41.6984 17.2455 36.7877 17.2455C35.9028 17.1768 35.0139 17.3075 34.1863 17.6281C33.3588 17.9487 32.6137 18.4509 32.0061 19.0978H32.0205Z" fill="#DABFFF"/>
</g>
</g>
<defs>
<clipPath id="clip0_194_2464">
<rect width="56" height="47.3846" fill="white"/>
</clipPath>
</defs>
</svg>
