<svg width="662" height="193" viewBox="0 0 662 193" fill="none" xmlns="http://www.w3.org/2000/svg">
<g opacity="0.24" clip-path="url(#clip0_985_3103)">
<path d="M10.923 104.947C2.2357 90.4131 -0.836944 73.2109 2.28264 56.5738C5.40223 39.9367 14.4992 25.0106 27.8634 14.6012C41.2277 4.1919 57.9388 -0.983676 74.8553 0.0474215C91.7719 1.07852 107.729 8.24528 119.726 20.2005C131.724 32.1556 138.936 48.0759 140.007 64.9684C141.077 81.8609 135.933 98.5622 125.54 111.933C115.148 125.304 100.223 134.423 83.5719 137.576C66.9205 140.729 49.6894 137.699 35.1176 129.056L2.8945 139.801C0.709881 140.51 -0.546273 139.31 0.163727 137.074L10.9776 104.892L10.923 104.947Z" fill="#463C77"/>
<path d="M91.3714 58.5273C103.37 46.6582 119.284 39.5565 136.142 38.5485C153 37.5405 169.649 42.695 182.98 53.0495C196.311 63.404 205.412 78.2506 208.585 94.8167C211.757 111.383 208.784 128.536 200.22 143.073L210.979 175.255C211.689 177.491 210.488 178.691 208.248 177.982L176.025 167.236C161.47 175.79 144.295 178.759 127.707 175.591C111.12 172.422 96.2544 163.332 85.8866 150.018C75.5188 136.705 70.3577 120.077 71.367 103.241C72.3763 86.4044 79.4871 70.5106 91.3714 58.5273ZM139.269 127.636C134.19 127.636 130.094 132 130.094 137.455C130.094 142.909 134.19 147.273 139.269 147.273C144.348 147.273 148.499 142.909 148.499 137.455C148.499 132 144.348 127.636 139.269 127.636ZM121.792 72.5455C119.374 75.08 117.497 78.0796 116.276 81.3617C115.056 84.6437 114.517 88.1396 114.692 91.6364H129.22C129.22 82.1454 134.244 78.1636 139.488 78.1636C141.672 77.7818 144.021 78.4909 145.659 80.1818C147.298 81.8182 148.117 84.2727 147.844 86.6727C147.844 92.9455 146.97 94.1454 141.563 98.5636C138.463 100.704 135.952 103.59 134.262 106.955C132.573 110.32 131.759 114.056 131.896 117.818H145.441C146.205 112.909 148.991 108.709 152.978 106.309C156.277 104.394 159.017 101.649 160.924 98.347C162.831 95.0454 163.838 91.3024 163.846 87.4909C163.846 79.9091 158.603 65.5091 139.924 65.5091C136.559 65.2481 133.178 65.7448 130.03 66.9626C126.883 68.1804 124.049 70.0882 121.738 72.5455H121.792Z" fill="white"/>
<mask id="mask0_985_3103" style="mask-type:luminance" maskUnits="userSpaceOnUse" x="-1" y="-1" width="142" height="142">
<path d="M10.923 104.947C2.2357 90.4131 -0.836944 73.2109 2.28264 56.5738C5.40223 39.9367 14.4992 25.0106 27.8634 14.6012C41.2277 4.1919 57.9388 -0.983676 74.8553 0.0474215C91.7719 1.07852 107.729 8.24528 119.726 20.2005C131.724 32.1556 138.936 48.0759 140.007 64.9684C141.077 81.8609 135.933 98.5622 125.54 111.933C115.148 125.304 100.223 134.423 83.5719 137.576C66.9205 140.729 49.6894 137.699 35.1176 129.056L2.8945 139.801C0.709881 140.51 -0.546273 139.31 0.163727 137.074L10.9776 104.892L10.923 104.947Z" fill="white"/>
</mask>
<g mask="url(#mask0_985_3103)">
<path d="M91.3714 58.5285C103.37 46.6594 119.284 39.5578 136.142 38.5498C153 37.5417 169.649 42.6963 182.98 53.0508C196.311 63.4053 205.412 78.2518 208.585 94.818C211.757 111.384 208.784 128.537 200.22 143.074L210.979 175.256C211.689 177.492 210.488 178.692 208.248 177.983L176.025 167.238C161.47 175.791 144.295 178.76 127.707 175.592C111.12 172.423 96.2544 163.334 85.8866 150.02C75.5188 136.706 70.3577 120.078 71.367 103.242C72.3763 86.4056 79.4871 70.5119 91.3714 58.5285ZM139.269 127.638C134.19 127.638 130.094 132.001 130.094 137.456C130.094 142.91 134.19 147.274 139.269 147.274C144.348 147.274 148.499 142.91 148.499 137.456C148.499 132.001 144.348 127.638 139.269 127.638ZM121.792 72.5467C119.374 75.0812 117.497 78.0808 116.276 81.3629C115.056 84.645 114.517 88.1408 114.692 91.6376H129.22C129.22 82.1467 134.244 78.1649 139.488 78.1649C141.672 77.7831 144.021 78.4922 145.659 80.1831C147.298 81.8194 148.117 84.274 147.844 86.674C147.844 92.9467 146.97 94.1467 141.563 98.5649C138.463 100.706 135.952 103.592 134.262 106.957C132.573 110.322 131.759 114.058 131.896 117.819H145.441C146.205 112.91 148.991 108.71 152.978 106.31C156.277 104.395 159.017 101.65 160.924 98.3483C162.831 95.0466 163.838 91.3037 163.846 87.4922C163.846 79.9104 158.603 65.5103 139.924 65.5103C136.559 65.2493 133.178 65.746 130.03 66.9638C126.883 68.1816 124.049 70.0895 121.738 72.5467H121.792Z" fill="white"/>
</g>
</g>
<path d="M656 178H212.997L210 177" stroke="#57526D" stroke-width="3" stroke-linecap="round"/>
<g filter="url(#filter0_d_985_3103)">
<path fill-rule="evenodd" clip-rule="evenodd" d="M651 183.528C655.109 180.461 657 179.222 657 177.5C657 175.778 655.109 174.539 651 171.472V171.472C649.765 170.551 645 171.873 645 173.414V177.5V181.586C645 183.127 649.765 184.449 651 183.528V183.528Z" fill="#55516C"/>
</g>
<defs>
<filter id="filter0_d_985_3103" x="640" y="167.168" width="22" height="22.6644" filterUnits="userSpaceOnUse" color-interpolation-filters="sRGB">
<feFlood flood-opacity="0" result="BackgroundImageFix"/>
<feColorMatrix in="SourceAlpha" type="matrix" values="0 0 0 0 0 0 0 0 0 0 0 0 0 0 0 0 0 0 127 0" result="hardAlpha"/>
<feOffset dy="1"/>
<feGaussianBlur stdDeviation="2.5"/>
<feColorMatrix type="matrix" values="0 0 0 0 0 0 0 0 0 0 0 0 0 0 0 0 0 0 0.04 0"/>
<feBlend mode="normal" in2="BackgroundImageFix" result="effect1_dropShadow_985_3103"/>
<feBlend mode="normal" in="SourceGraphic" in2="effect1_dropShadow_985_3103" result="shape"/>
</filter>
<clipPath id="clip0_985_3103">
<rect width="213" height="180" fill="white"/>
</clipPath>
</defs>
</svg>
