<svg width="79" height="14" viewBox="0 0 79 14" fill="none" xmlns="http://www.w3.org/2000/svg">
<rect opacity="0.1" y="5.82843" width="19" height="2" rx="1" fill="#12141D"/>
<rect opacity="0.2" x="24" y="5.82843" width="19" height="2" rx="1" fill="#12141D"/>
<path fill-rule="evenodd" clip-rule="evenodd" d="M72.1213 0.292893C71.7308 -0.0976311 71.0976 -0.0976311 70.7071 0.292893C70.3166 0.683417 70.3166 1.31658 70.7071 1.70711L75.8284 6.82843L70.7071 11.9498C70.3166 12.3403 70.3166 12.9734 70.7071 13.364C71.0976 13.7545 71.7308 13.7545 72.1213 13.364L77.7782 7.70711C78.0172 7.46804 78.11 7.13804 78.0563 6.82843C78.11 6.51883 78.0172 6.18882 77.7782 5.94975L72.1213 0.292893ZM48 6.58578C48 6.0335 48.4477 5.58578 49 5.58578H71C71.5523 5.58578 72 6.0335 72 6.58578C72 7.13807 71.5523 7.58578 71 7.58578H49C48.4477 7.58578 48 7.13807 48 6.58578Z" fill="#12141D"/>
</svg>
