<svg width="14" height="12" viewBox="0 0 14 12" fill="none" xmlns="http://www.w3.org/2000/svg">
<path d="M13.7266 4.22266C13.0977 4.71484 12.3047 5.31641 9.51562 7.33984C8.96875 7.75 7.95703 8.65234 7 8.65234C6.01562 8.65234 5.03125 7.75 4.45703 7.33984C1.66797 5.31641 0.875 4.71484 0.246094 4.22266C0.136719 4.14062 0 4.22266 0 4.35938V9.9375C0 10.6758 0.574219 11.25 1.3125 11.25H12.6875C13.3984 11.25 14 10.6758 14 9.9375V4.35938C14 4.22266 13.8359 4.14062 13.7266 4.22266ZM7 7.75C7.62891 7.77734 8.53125 6.95703 8.99609 6.62891C12.6328 4.00391 12.9062 3.75781 13.7266 3.10156C13.8906 2.99219 14 2.80078 14 2.58203V2.0625C14 1.35156 13.3984 0.75 12.6875 0.75H1.3125C0.574219 0.75 0 1.35156 0 2.0625V2.58203C0 2.80078 0.0820312 2.99219 0.246094 3.10156C1.06641 3.75781 1.33984 4.00391 4.97656 6.62891C5.44141 6.95703 6.34375 7.77734 7 7.75Z" fill="white"/>
</svg>
