<svg width="40" height="40" viewBox="0 0 40 40" fill="none" xmlns="http://www.w3.org/2000/svg">
<circle cx="20" cy="20" r="20" fill="#EBE8F0" fill-opacity="0.1"/>
<g clip-path="url(#clip0_146_113)">
<path d="M12.2031 17.3477H15.6329V27.6666H12.2031V17.3477Z" fill="white"/>
<path d="M13.9403 12.375C12.7671 12.375 12 13.1454 12 14.158C12 15.1482 12.7443 15.9406 13.8953 15.9406H13.9176C15.1138 15.9406 15.8582 15.1482 15.8582 14.158C15.8358 13.1454 15.1138 12.375 13.9403 12.375Z" fill="white"/>
<path d="M24.0522 17.1055C22.2324 17.1055 21.417 18.1056 20.9612 18.8088V17.3477H17.5312V27.6666H20.9611V21.9041C20.9611 21.5956 20.9834 21.2876 21.074 21.067C21.3219 20.4509 21.8862 19.8127 22.8337 19.8127C24.0748 19.8127 24.5713 20.759 24.5713 22.1462V27.6666H28.0009V21.7499C28.0009 18.5803 26.3087 17.1055 24.0522 17.1055Z" fill="white"/>
</g>
<defs>
<clipPath id="clip0_146_113">
<rect width="16" height="16" fill="white" transform="translate(12 12)"/>
</clipPath>
</defs>
</svg>
