<svg width="160" height="34" viewBox="0 0 160 34" fill="none" xmlns="http://www.w3.org/2000/svg">
<g clip-path="url(#clip0_146_86)">
<path d="M7.90601 24.6052C5.537 25.151 3.19553 25.6968 0.881614 26.2426C-1.31064 18.4517 2.5918 10.6585 1.29481 2.86537C3.65923 2.24501 5.98845 1.62616 8.28248 1.00879C10.4954 8.87129 6.49883 16.7383 7.90601 24.6052Z" fill="white"/>
<path d="M27.6364 24.605C25.2689 25.1508 22.9282 25.6966 20.6143 26.2424C18.4197 18.4515 22.3222 10.6583 21.0275 2.86516C23.3842 2.24481 25.7104 1.62521 28.006 1.00635C30.2258 8.87108 26.2292 16.7381 27.6364 24.605Z" fill="white"/>
<path d="M18.1461 32.2485L10.7476 33.8881V10.5109L18.1461 8.6543V32.2485Z" fill="white"/>
<path d="M48.3743 23.2473V17.5411H41.2581V23.2473H38.5264V9.13281H41.2581V15.0806H48.3743V9.13281H51.0853V23.2473H48.3743Z" fill="white"/>
<path d="M61.5554 13.2867H63.9772V23.2272H61.5967L61.4728 21.7755C60.892 22.9453 59.2989 23.509 58.1626 23.5292C55.1393 23.5493 52.9058 21.7397 52.9058 18.248C52.9058 14.8189 55.2426 13.025 58.2246 13.0451C59.5904 13.0451 60.892 13.6692 61.4728 14.6579L61.5554 13.2867ZM55.4309 18.248C55.4309 20.1426 56.7761 21.2722 58.4518 21.2722C62.4254 21.2722 62.4254 15.2327 58.4518 15.2327C56.7761 15.2417 55.4309 16.3511 55.4309 18.248Z" fill="white"/>
<path d="M75.0873 21.9571C74.58 22.4706 73.9681 22.8752 73.2909 23.1448C72.6138 23.4145 71.8862 23.5432 71.155 23.5229C68.196 23.5229 65.7329 21.7893 65.7329 18.2618C65.7329 14.7343 68.196 12.9985 71.155 12.9985C71.8392 12.9772 72.5202 13.0973 73.1533 13.351C73.7864 13.6047 74.3571 13.9862 74.8279 14.4704L73.2348 16.1033C72.6731 15.6057 71.9439 15.3256 71.1848 15.3159C69.4884 15.3159 68.2465 16.526 68.2465 18.2618C68.2465 20.1564 69.5711 21.1697 71.1435 21.1697C71.5541 21.1849 71.9636 21.1194 72.3477 20.9772C72.7318 20.835 73.0827 20.619 73.3794 20.3421L75.0873 21.9571Z" fill="white"/>
<path d="M78.6662 9.13289V17.2795L82.1095 13.2867H85.1305V13.4209L80.9641 17.9639L85.7021 23.0393V23.2205H82.6605L78.6662 18.7245V23.2205H76.1411V9.12842L78.6662 9.13289Z" fill="white"/>
<path d="M93.6586 23.2272V17.8945C93.6586 16.5838 92.9538 15.3938 91.5673 15.3938C90.1808 15.3938 89.3957 16.5838 89.3957 17.8945V23.2182H86.8706V13.2665H89.2098L89.3957 14.4766C89.9329 13.4678 91.1128 13.1055 92.0861 13.1055C93.305 13.1055 94.5263 13.5886 95.107 14.9598C96.0253 13.5484 97.196 13.1457 98.5205 13.1457C101.418 13.1457 102.845 14.8793 102.845 17.8632V23.2316H100.316V17.8632C100.316 16.5524 99.7532 15.434 98.3874 15.434C97.0215 15.434 96.1837 16.5927 96.1837 17.8945V23.2182L93.6586 23.2272Z" fill="white"/>
<path d="M113.492 13.2867H115.925V23.2272H113.533L113.409 21.7755C112.831 22.9453 111.238 23.509 110.099 23.5292C107.078 23.5493 104.842 21.7397 104.842 18.248C104.842 14.8189 107.181 13.025 110.161 13.0451C111.538 13.0451 112.831 13.6692 113.409 14.6579L113.492 13.2867ZM107.367 18.248C107.367 20.1426 108.713 21.2722 110.388 21.2722C114.362 21.2722 114.362 15.2327 110.388 15.2327C108.713 15.2417 107.367 16.3511 107.367 18.248Z" fill="white"/>
<path d="M124.832 23.2272V17.8945C124.832 16.5838 124.129 15.3938 122.743 15.3938C121.356 15.3938 120.569 16.5838 120.569 17.8945V23.2182H118.044V13.2665H120.383L120.569 14.4766C121.106 13.4678 122.286 13.1055 123.259 13.1055C124.481 13.1055 125.702 13.5886 126.28 14.9598C127.199 13.5484 128.372 13.1457 129.696 13.1457C132.593 13.1457 134.021 14.8793 134.021 17.8632V23.2316H131.496V17.8632C131.496 16.5524 130.936 15.443 129.572 15.443C128.209 15.443 127.357 16.5927 127.357 17.9035V23.2272H124.832Z" fill="white"/>
<path d="M139.111 9.13281V14.6377C139.71 13.6087 141.385 13.0451 142.462 13.0451C145.446 13.0451 147.657 14.8189 147.657 18.248C147.657 21.5137 145.4 23.4486 142.4 23.4486C141.158 23.4486 139.896 23.046 139.111 21.856L138.945 23.2272H136.585V9.13505L139.111 9.13281ZM139.276 18.248C139.261 18.6323 139.327 19.0156 139.47 19.3742C139.613 19.7328 139.83 20.0591 140.107 20.3329C140.384 20.6068 140.716 20.8225 141.082 20.9667C141.448 21.1109 141.84 21.1806 142.235 21.1715C143.842 21.1715 145.132 19.9815 145.132 18.248C145.132 16.4585 143.849 15.3401 142.235 15.3401C141.842 15.3339 141.453 15.4051 141.089 15.5494C140.726 15.6937 140.396 15.908 140.119 16.1796C139.843 16.4512 139.626 16.7744 139.481 17.1299C139.336 17.4853 139.266 17.8656 139.276 18.248Z" fill="white"/>
<path d="M157.61 13.2867H160.03V23.2272H157.652L157.528 21.7755C156.947 22.9453 155.354 23.509 154.215 23.5292C151.194 23.5493 148.958 21.7397 148.958 18.248C148.958 14.8189 151.298 13.025 154.277 13.0451C155.643 13.0451 156.947 13.6692 157.528 14.6579L157.61 13.2867ZM151.484 18.248C151.484 20.1426 152.829 21.2722 154.505 21.2722C158.478 21.2722 158.478 15.2327 154.505 15.2327C152.829 15.2417 151.484 16.3511 151.484 18.248Z" fill="white"/>
</g>
<defs>
<clipPath id="clip0_146_86">
<rect width="160" height="34" fill="white"/>
</clipPath>
</defs>
</svg>
