<svg width="60" height="60" viewBox="0 0 60 60" fill="none" xmlns="http://www.w3.org/2000/svg">
<circle opacity="0.2" cx="30" cy="30" r="30" fill="white"/>
<g clip-path="url(#clip0_86_63)">
<g filter="url(#filter0_b_86_63)">
<path fill-rule="evenodd" clip-rule="evenodd" d="M16.5915 18.4351C15 20.6257 15 23.7504 15 30C15 36.2496 15 39.3743 16.5915 41.5649C17.1055 42.2723 17.7277 42.8945 18.4351 43.4085C20.6257 45 23.7504 45 30 45C36.2496 45 39.3743 45 41.5649 43.4085C42.2723 42.8945 42.8945 42.2723 43.4085 41.5649C45 39.3743 45 36.2496 45 30C45 23.7504 45 20.6257 43.4085 18.4351C42.8945 17.7277 42.2723 17.1055 41.5649 16.5915C39.3743 15 36.2496 15 30 15C23.7504 15 20.6257 15 18.4351 16.5915C17.7277 17.1055 17.1055 17.7277 16.5915 18.4351Z" fill="#5C9D52"/>
<path fill-rule="evenodd" clip-rule="evenodd" d="M16.5915 18.4351C15 20.6257 15 23.7504 15 30C15 36.2496 15 39.3743 16.5915 41.5649C17.1055 42.2723 17.7277 42.8945 18.4351 43.4085C20.6257 45 23.7504 45 30 45C36.2496 45 39.3743 45 41.5649 43.4085C42.2723 42.8945 42.8945 42.2723 43.4085 41.5649C45 39.3743 45 36.2496 45 30C45 23.7504 45 20.6257 43.4085 18.4351C42.8945 17.7277 42.2723 17.1055 41.5649 16.5915C39.3743 15 36.2496 15 30 15C23.7504 15 20.6257 15 18.4351 16.5915C17.7277 17.1055 17.1055 17.7277 16.5915 18.4351Z" stroke="url(#paint0_linear_86_63)" stroke-linecap="round"/>
</g>
<g filter="url(#filter1_d_86_63)">
<path fill-rule="evenodd" clip-rule="evenodd" d="M31.2502 23.3334C31.2502 22.643 30.6905 22.0834 30.0002 22.0834C29.3098 22.0834 28.7502 22.643 28.7502 23.3334V34.8937C28.7265 34.8753 28.7023 34.8561 28.6776 34.8363C28.1399 34.4045 27.5007 33.7622 26.5511 32.8041L24.2213 30.4534C23.7353 29.9631 22.9439 29.9596 22.4536 30.4456C21.9632 30.9315 21.9597 31.723 22.4457 32.2133L24.8262 34.6152C25.7119 35.5088 26.4505 36.2541 27.1122 36.7856C27.8063 37.3429 28.5357 37.7669 29.4243 37.8802C29.6155 37.9045 29.8078 37.9167 30.0002 37.9167C30.1925 37.9167 30.3848 37.9045 30.576 37.8802C31.4646 37.7669 32.1941 37.3429 32.8881 36.7856C33.5498 36.2542 34.2884 35.5089 35.1741 34.6152L37.5546 32.2133C38.0406 31.723 38.0371 30.9315 37.5468 30.4456C37.0564 29.9596 36.265 29.9631 35.779 30.4534L33.4493 32.8041C32.4996 33.7622 31.8604 34.4045 31.3227 34.8363C31.298 34.8561 31.2739 34.8753 31.2502 34.8937V23.3334Z" fill="url(#paint1_linear_86_63)"/>
</g>
</g>
<defs>
<filter id="filter0_b_86_63" x="-9.5" y="-9.5" width="79" height="79" filterUnits="userSpaceOnUse" color-interpolation-filters="sRGB">
<feFlood flood-opacity="0" result="BackgroundImageFix"/>
<feGaussianBlur in="BackgroundImageFix" stdDeviation="12"/>
<feComposite in2="SourceAlpha" operator="in" result="effect1_backgroundBlur_86_63"/>
<feBlend mode="normal" in="SourceGraphic" in2="effect1_backgroundBlur_86_63" result="shape"/>
</filter>
<filter id="filter1_d_86_63" x="19.0835" y="19.0834" width="31.8335" height="31.8334" filterUnits="userSpaceOnUse" color-interpolation-filters="sRGB">
<feFlood flood-opacity="0" result="BackgroundImageFix"/>
<feColorMatrix in="SourceAlpha" type="matrix" values="0 0 0 0 0 0 0 0 0 0 0 0 0 0 0 0 0 0 127 0" result="hardAlpha"/>
<feOffset dx="5" dy="5"/>
<feGaussianBlur stdDeviation="4"/>
<feColorMatrix type="matrix" values="0 0 0 0 0.360784 0 0 0 0 0.615686 0 0 0 0 0.321569 0 0 0 0.5 0"/>
<feBlend mode="normal" in2="BackgroundImageFix" result="effect1_dropShadow_86_63"/>
<feBlend mode="normal" in="SourceGraphic" in2="effect1_dropShadow_86_63" result="shape"/>
</filter>
<linearGradient id="paint0_linear_86_63" x1="15" y1="15" x2="45.0152" y2="44.9848" gradientUnits="userSpaceOnUse">
<stop stop-color="white" stop-opacity="0.25"/>
<stop offset="1" stop-color="white" stop-opacity="0"/>
</linearGradient>
<linearGradient id="paint1_linear_86_63" x1="30.1335" y1="41.2899" x2="51.986" y2="19.869" gradientUnits="userSpaceOnUse">
<stop stop-color="white"/>
<stop offset="1" stop-color="white" stop-opacity="0.2"/>
</linearGradient>
<clipPath id="clip0_86_63">
<rect width="40" height="40" fill="white" transform="translate(10 10)"/>
</clipPath>
</defs>
</svg>
