<svg width="60" height="60" viewBox="0 0 60 60" fill="none" xmlns="http://www.w3.org/2000/svg">
<circle opacity="0.2" cx="30" cy="30" r="30" fill="white"/>
<g filter="url(#filter0_b_86_55)">
<path fill-rule="evenodd" clip-rule="evenodd" d="M30.0754 13.75C33.1363 13.75 35.5356 13.75 37.4392 13.9562C39.3818 14.1667 40.9557 14.6039 42.2996 15.5803C43.1132 16.1713 43.8286 16.8868 44.4197 17.7004C45.3961 19.0443 45.8333 20.6182 46.0438 22.5608C46.25 24.4643 46.25 26.8637 46.25 29.9245V30.0756C46.25 33.1364 46.25 35.5357 46.0438 37.4392C45.8333 39.3818 45.3961 40.9557 44.4197 42.2996C43.8287 43.1132 43.1132 43.8287 42.2996 44.4197C40.9557 45.3961 39.3818 45.8333 37.4392 46.0438C35.5357 46.25 33.1363 46.25 30.0755 46.25H29.9244C26.8636 46.25 24.4643 46.25 22.5608 46.0438C20.6182 45.8333 19.0443 45.3961 17.7004 44.4197C16.8868 43.8286 16.1713 43.1132 15.5803 42.2996C14.6039 40.9557 14.1667 39.3818 13.9562 37.4392C13.75 35.5356 13.75 33.1363 13.75 30.0754V29.9246C13.75 26.8637 13.75 24.4643 13.9562 22.5608C14.1667 20.6182 14.6039 19.0443 15.5803 17.7004C16.1714 16.8868 16.8868 16.1714 17.7004 15.5803C19.0443 14.6039 20.6182 14.1667 22.5608 13.9562C24.4644 13.75 26.8637 13.75 29.9246 13.75H30.0754Z" fill="#87839A"/>
<path fill-rule="evenodd" clip-rule="evenodd" d="M30.0754 13.75C33.1363 13.75 35.5356 13.75 37.4392 13.9562C39.3818 14.1667 40.9557 14.6039 42.2996 15.5803C43.1132 16.1713 43.8286 16.8868 44.4197 17.7004C45.3961 19.0443 45.8333 20.6182 46.0438 22.5608C46.25 24.4643 46.25 26.8637 46.25 29.9245V30.0756C46.25 33.1364 46.25 35.5357 46.0438 37.4392C45.8333 39.3818 45.3961 40.9557 44.4197 42.2996C43.8287 43.1132 43.1132 43.8287 42.2996 44.4197C40.9557 45.3961 39.3818 45.8333 37.4392 46.0438C35.5357 46.25 33.1363 46.25 30.0755 46.25H29.9244C26.8636 46.25 24.4643 46.25 22.5608 46.0438C20.6182 45.8333 19.0443 45.3961 17.7004 44.4197C16.8868 43.8286 16.1713 43.1132 15.5803 42.2996C14.6039 40.9557 14.1667 39.3818 13.9562 37.4392C13.75 35.5356 13.75 33.1363 13.75 30.0754V29.9246C13.75 26.8637 13.75 24.4643 13.9562 22.5608C14.1667 20.6182 14.6039 19.0443 15.5803 17.7004C16.1714 16.8868 16.8868 16.1714 17.7004 15.5803C19.0443 14.6039 20.6182 14.1667 22.5608 13.9562C24.4644 13.75 26.8637 13.75 29.9246 13.75H30.0754Z" stroke="url(#paint0_linear_86_55)" stroke-width="0.5" stroke-linecap="round"/>
</g>
<g filter="url(#filter1_d_86_55)">
<path fill-rule="evenodd" clip-rule="evenodd" d="M31.2502 21.6666C31.2502 20.9763 30.6905 20.4166 30.0002 20.4166C29.3098 20.4166 28.7502 20.9763 28.7502 21.6666V38.3333C28.7502 39.0236 29.3098 39.5833 30.0002 39.5833C30.6905 39.5833 31.2502 39.0236 31.2502 38.3333V21.6666ZM37.9168 28.3333C37.9168 27.6429 37.3572 27.0833 36.6668 27.0833C35.9765 27.0833 35.4168 27.6429 35.4168 28.3333V38.3333C35.4168 39.0236 35.9765 39.5833 36.6668 39.5833C37.3572 39.5833 37.9168 39.0236 37.9168 38.3333V28.3333ZM24.5835 31.6666C24.5835 30.9763 24.0239 30.4166 23.3335 30.4166C22.6431 30.4166 22.0835 30.9763 22.0835 31.6666V38.3333C22.0835 39.0236 22.6431 39.5833 23.3335 39.5833C24.0239 39.5833 24.5835 39.0236 24.5835 38.3333V31.6666Z" fill="url(#paint1_linear_86_55)"/>
</g>
<defs>
<filter id="filter0_b_86_55" x="1.5" y="1.5" width="57" height="57" filterUnits="userSpaceOnUse" color-interpolation-filters="sRGB">
<feFlood flood-opacity="0" result="BackgroundImageFix"/>
<feGaussianBlur in="BackgroundImageFix" stdDeviation="6"/>
<feComposite in2="SourceAlpha" operator="in" result="effect1_backgroundBlur_86_55"/>
<feBlend mode="normal" in="SourceGraphic" in2="effect1_backgroundBlur_86_55" result="shape"/>
</filter>
<filter id="filter1_d_86_55" x="20.5835" y="18.9166" width="23.8335" height="27.1666" filterUnits="userSpaceOnUse" color-interpolation-filters="sRGB">
<feFlood flood-opacity="0" result="BackgroundImageFix"/>
<feColorMatrix in="SourceAlpha" type="matrix" values="0 0 0 0 0 0 0 0 0 0 0 0 0 0 0 0 0 0 127 0" result="hardAlpha"/>
<feOffset dx="2.5" dy="2.5"/>
<feGaussianBlur stdDeviation="2"/>
<feColorMatrix type="matrix" values="0 0 0 0 0.529412 0 0 0 0 0.513726 0 0 0 0 0.603922 0 0 0 1 0"/>
<feBlend mode="normal" in2="BackgroundImageFix" result="effect1_dropShadow_86_55"/>
<feBlend mode="normal" in="SourceGraphic" in2="effect1_dropShadow_86_55" result="shape"/>
</filter>
<linearGradient id="paint0_linear_86_55" x1="13.75" y1="13.75" x2="46.2665" y2="46.2335" gradientUnits="userSpaceOnUse">
<stop stop-color="white" stop-opacity="0.25"/>
<stop offset="1" stop-color="white" stop-opacity="0"/>
</linearGradient>
<linearGradient id="paint1_linear_86_55" x1="30.1335" y1="43.6666" x2="56.0135" y2="22.7098" gradientUnits="userSpaceOnUse">
<stop stop-color="white"/>
<stop offset="1" stop-color="white" stop-opacity="0.2"/>
</linearGradient>
</defs>
</svg>
