<svg width="40" height="32" viewBox="0 0 40 32" fill="none" xmlns="http://www.w3.org/2000/svg">
<rect width="40" height="32" rx="8" fill="#9E2FF4" fill-opacity="0.16"/>
<path d="M28.5 11H11.5C11.3674 11 11.2402 10.9473 11.1464 10.8536C11.0527 10.7598 11 10.6326 11 10.5V9.5C11 9.36739 11.0527 9.24021 11.1464 9.14645C11.2402 9.05268 11.3674 9 11.5 9H28.5C28.6326 9 28.7598 9.05268 28.8536 9.14645C28.9473 9.24021 29 9.36739 29 9.5V10.5C29 10.6326 28.9473 10.7598 28.8536 10.8536C28.7598 10.9473 28.6326 11 28.5 11ZM25.6464 16.5V15.5C25.6464 15.3674 25.5938 15.2402 25.5 15.1464C25.4062 15.0527 25.2791 15 25.1464 15H11.5C11.3674 15 11.2402 15.0527 11.1464 15.1464C11.0527 15.2402 11 15.3674 11 15.5V16.5C11 16.6326 11.0527 16.7598 11.1464 16.8536C11.2402 16.9473 11.3674 17 11.5 17H25.1464C25.2791 17 25.4062 16.9473 25.5 16.8536C25.5938 16.7598 25.6464 16.6326 25.6464 16.5ZM29 22.5V21.5C29 21.3674 28.9473 21.2402 28.8536 21.1464C28.7598 21.0527 28.6326 21 28.5 21H11.5C11.3674 21 11.2402 21.0527 11.1464 21.1464C11.0527 21.2402 11 21.3674 11 21.5V22.5C11 22.6326 11.0527 22.7598 11.1464 22.8536C11.2402 22.9473 11.3674 23 11.5 23H28.5C28.6326 23 28.7598 22.9473 28.8536 22.8536C28.9473 22.7598 29 22.6326 29 22.5Z" fill="#4F00A3"/>
</svg>
