<svg width="60" height="60" viewBox="0 0 60 60" fill="none" xmlns="http://www.w3.org/2000/svg">
<circle opacity="0.2" cx="30" cy="30" r="30" fill="white"/>
<g clip-path="url(#clip0_612_4076)">
<g filter="url(#filter0_b_612_4076)">
<g filter="url(#filter1_b_612_4076)">
<circle cx="30" cy="30" r="19" fill="#221C3F"/>
<circle cx="30" cy="30" r="19.5" stroke="url(#paint0_linear_612_4076)" stroke-linecap="round"/>
</g>
<g filter="url(#filter2_d_612_4076)">
<path d="M17.4881 32.9531C16.9424 32.9531 16.5 33.3938 16.5 33.9375C16.5 34.4812 16.9424 34.9219 17.4881 34.9219H21.4406C21.9863 34.9219 22.4287 34.4812 22.4287 33.9375C22.4287 33.3938 21.9863 32.9531 21.4406 32.9531H17.4881Z" fill="url(#paint1_linear_612_4076)"/>
<path d="M17.4881 36.8906C16.9424 36.8906 16.5 37.3313 16.5 37.875C16.5 38.4187 16.9424 38.8594 17.4881 38.8594H25.393C25.9387 38.8594 26.3811 38.4187 26.3811 37.875C26.3811 37.3313 25.9387 36.8906 25.393 36.8906H17.4881Z" fill="url(#paint2_linear_612_4076)"/>
<path d="M22.1257 23.7085L20.8802 22.4677C21.5595 21.4342 22.5181 20.6122 23.6463 20.097C24.9535 19.5 26.5799 19.5 29.8329 19.5H31.9727C35.2257 19.5 36.8521 19.5 38.1593 20.097C39.2176 20.5803 40.1268 21.3336 40.796 22.2783L39.3604 23.7085C37.1448 25.9157 35.552 27.4995 34.1781 28.5438C32.827 29.5708 31.8044 29.9827 30.7431 29.9827C29.6817 29.9827 28.6591 29.5708 27.3081 28.5438C25.9342 27.4995 24.3413 25.9157 22.1257 23.7085Z" fill="url(#paint3_linear_612_4076)"/>
<path d="M19.3932 28.5555C19.6449 26.7505 19.8258 25.4529 20.0734 24.4482L20.7818 25.1539C22.9323 27.2962 24.6176 28.9752 26.1093 30.109C27.6362 31.2696 29.0758 31.9514 30.7431 31.9514C32.4103 31.9514 33.8499 31.2696 35.3768 30.109C36.8685 28.9752 38.5538 27.2962 40.7043 25.1539L41.6667 24.1952C41.9492 25.2334 42.1391 26.5951 42.4124 28.5555C42.987 32.6774 43.2744 34.7383 42.6426 36.3389C42.088 37.7441 41.0639 38.9158 39.7431 39.6564C38.2385 40.5 36.1499 40.5 31.9727 40.5H29.8328C28.2436 40.5 26.9566 40.5 25.8892 40.4535C27.1072 40.2223 28.028 39.1558 28.028 37.875C28.028 36.4253 26.8483 35.25 25.393 35.25H23.723C23.9472 34.8639 24.0755 34.4156 24.0755 33.9375C24.0755 32.4878 22.8958 31.3125 21.4406 31.3125H19.0227C19.121 30.508 19.2479 29.5976 19.3932 28.5555Z" fill="url(#paint4_linear_612_4076)"/>
</g>
</g>
</g>
<defs>
<filter id="filter0_b_612_4076" x="-14" y="-14" width="88" height="88" filterUnits="userSpaceOnUse" color-interpolation-filters="sRGB">
<feFlood flood-opacity="0" result="BackgroundImageFix"/>
<feGaussianBlur in="BackgroundImageFix" stdDeviation="12"/>
<feComposite in2="SourceAlpha" operator="in" result="effect1_backgroundBlur_612_4076"/>
<feBlend mode="normal" in="SourceGraphic" in2="effect1_backgroundBlur_612_4076" result="shape"/>
</filter>
<filter id="filter1_b_612_4076" x="-14" y="-14" width="88" height="88" filterUnits="userSpaceOnUse" color-interpolation-filters="sRGB">
<feFlood flood-opacity="0" result="BackgroundImageFix"/>
<feGaussianBlur in="BackgroundImageFix" stdDeviation="12"/>
<feComposite in2="SourceAlpha" operator="in" result="effect1_backgroundBlur_612_4076"/>
<feBlend mode="normal" in="SourceGraphic" in2="effect1_backgroundBlur_612_4076" result="shape"/>
</filter>
<filter id="filter2_d_612_4076" x="13.5" y="16.5" width="42.5" height="37" filterUnits="userSpaceOnUse" color-interpolation-filters="sRGB">
<feFlood flood-opacity="0" result="BackgroundImageFix"/>
<feColorMatrix in="SourceAlpha" type="matrix" values="0 0 0 0 0 0 0 0 0 0 0 0 0 0 0 0 0 0 127 0" result="hardAlpha"/>
<feOffset dx="5" dy="5"/>
<feGaussianBlur stdDeviation="4"/>
<feColorMatrix type="matrix" values="0 0 0 0 0 0 0 0 0 0 0 0 0 0 0 0 0 0 0.05 0"/>
<feBlend mode="normal" in2="BackgroundImageFix" result="effect1_dropShadow_612_4076"/>
<feBlend mode="normal" in="SourceGraphic" in2="effect1_dropShadow_612_4076" result="shape"/>
</filter>
<linearGradient id="paint0_linear_612_4076" x1="11" y1="11" x2="49.0193" y2="48.9807" gradientUnits="userSpaceOnUse">
<stop stop-color="white" stop-opacity="0.25"/>
<stop offset="1" stop-color="white" stop-opacity="0"/>
</linearGradient>
<linearGradient id="paint1_linear_612_4076" x1="29.9731" y1="44.9739" x2="58.3188" y2="9.91093" gradientUnits="userSpaceOnUse">
<stop stop-color="white"/>
<stop offset="1" stop-color="white" stop-opacity="0.2"/>
</linearGradient>
<linearGradient id="paint2_linear_612_4076" x1="29.9731" y1="44.9739" x2="58.3188" y2="9.91093" gradientUnits="userSpaceOnUse">
<stop stop-color="white"/>
<stop offset="1" stop-color="white" stop-opacity="0.2"/>
</linearGradient>
<linearGradient id="paint3_linear_612_4076" x1="29.9731" y1="44.9739" x2="58.3188" y2="9.91093" gradientUnits="userSpaceOnUse">
<stop stop-color="white"/>
<stop offset="1" stop-color="white" stop-opacity="0.2"/>
</linearGradient>
<linearGradient id="paint4_linear_612_4076" x1="29.9731" y1="44.9739" x2="58.3188" y2="9.91093" gradientUnits="userSpaceOnUse">
<stop stop-color="white"/>
<stop offset="1" stop-color="white" stop-opacity="0.2"/>
</linearGradient>
<clipPath id="clip0_612_4076">
<rect width="40" height="40" fill="white" transform="translate(10 10)"/>
</clipPath>
</defs>
</svg>
