<svg width="40" height="40" viewBox="0 0 40 40" fill="none" xmlns="http://www.w3.org/2000/svg">
<g clip-path="url(#clip0_381_4343)">
<rect opacity="0.1" width="40" height="40" rx="20" fill="#CDDAED"/>
<path d="M25.6469 13.3333H14.3535C14.2266 13.3316 14.1005 13.3548 13.9826 13.4018C13.8646 13.4487 13.7571 13.5185 13.6661 13.607C13.5751 13.6955 13.5024 13.8011 13.4522 13.9177C13.402 14.0344 13.3753 14.1597 13.3735 14.2867V25.7133C13.3753 25.8403 13.402 25.9656 13.4522 26.0823C13.5024 26.1989 13.5751 26.3045 13.6661 26.393C13.7571 26.4815 13.8646 26.5512 13.9826 26.5982C14.1005 26.6452 14.2266 26.6684 14.3535 26.6667H25.6469C25.7738 26.6684 25.8999 26.6452 26.0178 26.5982C26.1358 26.5512 26.2433 26.4815 26.3343 26.393C26.4253 26.3045 26.498 26.1989 26.5482 26.0823C26.5984 25.9656 26.6251 25.8403 26.6269 25.7133V14.2867C26.6251 14.1597 26.5984 14.0344 26.5482 13.9177C26.498 13.8011 26.4253 13.6955 26.3343 13.607C26.2433 13.5185 26.1358 13.4487 26.0178 13.4018C25.8999 13.3548 25.7738 13.3316 25.6469 13.3333ZM17.3935 24.4933H15.3935V18.4933H17.3935V24.4933ZM16.3935 17.6533C16.1177 17.6533 15.8532 17.5438 15.6581 17.3487C15.4631 17.1537 15.3535 16.8892 15.3535 16.6133C15.3535 16.3375 15.4631 16.073 15.6581 15.8779C15.8532 15.6829 16.1177 15.5733 16.3935 15.5733C16.54 15.5567 16.6883 15.5712 16.8288 15.6159C16.9693 15.6606 17.0987 15.7345 17.2086 15.8326C17.3186 15.9308 17.4066 16.0511 17.4668 16.1857C17.527 16.3202 17.5581 16.4659 17.5581 16.6133C17.5581 16.7607 17.527 16.9065 17.4668 17.041C17.4066 17.1755 17.3186 17.2958 17.2086 17.394C17.0987 17.4922 16.9693 17.5661 16.8288 17.6107C16.6883 17.6554 16.54 17.6699 16.3935 17.6533ZM24.6069 24.4933H22.6069V21.2733C22.6069 20.4667 22.3202 19.94 21.5935 19.94C21.3686 19.9416 21.1497 20.0122 20.9661 20.1421C20.7825 20.272 20.6432 20.4551 20.5669 20.6667C20.5147 20.8234 20.4921 20.9884 20.5002 21.1533V24.4867H18.5002C18.5002 24.4867 18.5002 19.0333 18.5002 18.4867H20.5002V19.3333C20.6819 19.0181 20.9461 18.7583 21.2645 18.5821C21.5829 18.4059 21.9432 18.3199 22.3069 18.3333C23.6402 18.3333 24.6069 19.1933 24.6069 21.04V24.4933Z" fill="#CDDAED"/>
</g>
<defs>
<clipPath id="clip0_381_4343">
<rect width="40" height="40" fill="white"/>
</clipPath>
</defs>
</svg>
