<svg width="40" height="40" viewBox="0 0 40 40" fill="none" xmlns="http://www.w3.org/2000/svg">
<g clip-path="url(#clip0_186_2529)">
<rect opacity="0.1" width="40" height="40" rx="20" fill="#874FFF"/>
<path d="M25.6466 13.3333H14.3533C14.2263 13.3316 14.1003 13.3548 13.9823 13.4018C13.8644 13.4487 13.7568 13.5185 13.6658 13.607C13.5748 13.6955 13.5021 13.8011 13.452 13.9177C13.4018 14.0344 13.375 14.1597 13.3733 14.2867V25.7133C13.375 25.8403 13.4018 25.9656 13.452 26.0823C13.5021 26.1989 13.5748 26.3045 13.6658 26.393C13.7568 26.4815 13.8644 26.5512 13.9823 26.5982C14.1003 26.6452 14.2263 26.6684 14.3533 26.6667H25.6466C25.7736 26.6684 25.8996 26.6452 26.0176 26.5982C26.1355 26.5512 26.2431 26.4815 26.3341 26.393C26.4251 26.3045 26.4978 26.1989 26.548 26.0823C26.5982 25.9656 26.6249 25.8403 26.6266 25.7133V14.2867C26.6249 14.1597 26.5982 14.0344 26.548 13.9177C26.4978 13.8011 26.4251 13.6955 26.3341 13.607C26.2431 13.5185 26.1355 13.4487 26.0176 13.4018C25.8996 13.3548 25.7736 13.3316 25.6466 13.3333ZM17.3933 24.4933H15.3933V18.4933H17.3933V24.4933ZM16.3933 17.6533C16.1175 17.6533 15.8529 17.5438 15.6579 17.3487C15.4629 17.1537 15.3533 16.8892 15.3533 16.6133C15.3533 16.3375 15.4629 16.073 15.6579 15.8779C15.8529 15.6829 16.1175 15.5733 16.3933 15.5733C16.5398 15.5567 16.6881 15.5712 16.8285 15.6159C16.969 15.6606 17.0985 15.7345 17.2084 15.8326C17.3183 15.9308 17.4063 16.0511 17.4665 16.1857C17.5268 16.3202 17.5579 16.4659 17.5579 16.6133C17.5579 16.7607 17.5268 16.9065 17.4665 17.041C17.4063 17.1755 17.3183 17.2958 17.2084 17.394C17.0985 17.4922 16.969 17.5661 16.8285 17.6107C16.6881 17.6554 16.5398 17.6699 16.3933 17.6533ZM24.6066 24.4933H22.6066V21.2733C22.6066 20.4667 22.32 19.94 21.5933 19.94C21.3684 19.9416 21.1494 20.0122 20.9658 20.1421C20.7823 20.272 20.6429 20.4551 20.5666 20.6667C20.5145 20.8234 20.4918 20.9884 20.5 21.1533V24.4867H18.5C18.5 24.4867 18.5 19.0333 18.5 18.4867H20.5V19.3333C20.6816 19.0181 20.9459 18.7583 21.2643 18.5821C21.5826 18.4059 21.943 18.3199 22.3066 18.3333C23.64 18.3333 24.6066 19.1933 24.6066 21.04V24.4933Z" fill="#874FFF"/>
</g>
<defs>
<clipPath id="clip0_186_2529">
<rect width="40" height="40" fill="white"/>
</clipPath>
</defs>
</svg>
