<svg width="111" height="29" viewBox="0 0 111 29" fill="none" xmlns="http://www.w3.org/2000/svg">
<path d="M36.12 17.7853V8.63107C36.12 8.0951 36.0771 6.99817 35.9913 5.34025L37.1383 9.35998L39.861 17.7853H42.112L44.8347 9.35998C44.8752 9.23373 44.9194 9.0913 44.9672 8.9327L45.0264 8.7346C45.26 7.94548 45.5713 6.81403 45.9603 5.34025C45.8959 6.91241 45.862 7.80211 45.8584 8.00935C45.8549 8.21659 45.8531 8.42383 45.8531 8.63107V17.7853H48.6615V2.68187H44.4488L41.6726 11.5467L40.9972 13.9693L40.4827 11.9433L40.2469 11.1287L37.5456 2.68187H33.3115V17.7853H36.12ZM54.3237 17.9997C56.0245 17.9997 57.2965 17.2386 58.1398 15.7165H58.2041C58.2756 16.4383 58.4917 16.985 58.8526 17.3566C59.2135 17.7282 59.7727 17.914 60.5302 17.914C60.7446 17.914 60.9322 17.9068 61.0929 17.8925C61.2537 17.8782 61.4056 17.8604 61.5485 17.8389C61.6914 17.8175 61.8344 17.7889 61.9773 17.7532C62.1202 17.7174 62.281 17.6781 62.4597 17.6353V16.0059C62.2453 16.0488 62.0237 16.0702 61.7951 16.0702C61.452 16.0702 61.2073 15.947 61.0608 15.7004C60.9143 15.4539 60.841 15.0055 60.841 14.3552V10.1318C60.841 8.80258 60.4444 7.7771 59.6512 7.05534C58.858 6.33357 57.7289 5.97269 56.2639 5.97269C54.8132 5.97269 53.6681 6.2639 52.8284 6.84631C51.9887 7.42872 51.4724 8.28448 51.2795 9.41357L54.4202 9.56364C54.4845 8.97766 54.6471 8.55782 54.9079 8.30413C55.1688 8.05044 55.5779 7.9236 56.1353 7.9236C56.7356 7.9236 57.1679 8.10761 57.4323 8.47564C57.6967 8.84367 57.8289 9.40643 57.8289 10.1639V10.7535L55.3313 10.7964C53.8449 10.8107 52.7105 11.1322 51.928 11.7611C51.1455 12.39 50.7542 13.3047 50.7542 14.5052C50.7542 15.6129 51.0686 16.4722 51.6975 17.0832C52.3264 17.6942 53.2018 17.9997 54.3237 17.9997ZM55.2885 15.8987C54.8668 15.8987 54.5292 15.7647 54.2755 15.4968C54.0218 15.2288 53.895 14.8197 53.895 14.2694C53.895 13.8406 53.9718 13.4976 54.1254 13.2404C54.2791 12.9831 54.5024 12.7919 54.7954 12.6669C55.0884 12.5418 55.585 12.465 56.2854 12.4364L57.8289 12.415V13.0045C57.8289 13.5119 57.7182 13.9925 57.4966 14.4463C57.2751 14.9001 56.9696 15.2556 56.5801 15.5128C56.1907 15.7701 55.7601 15.8987 55.2885 15.8987ZM66.8463 17.7853V12.0934C66.8463 10.9 67.0553 9.99956 67.4734 9.39214C67.8914 8.78471 68.4756 8.481 69.226 8.481C69.5976 8.481 70.0263 8.53459 70.5123 8.64179V6.12276C70.2764 6.01557 69.9656 5.96197 69.5797 5.96197C69.108 5.96197 68.715 6.04237 68.4006 6.20315C68.0861 6.36394 67.8146 6.61049 67.5859 6.94278C67.3572 7.27508 67.0964 7.84856 66.8034 8.66323H66.7605C66.7605 8.44884 66.7427 8.01471 66.7069 7.36084C66.6712 6.70696 66.6426 6.31571 66.6212 6.18708H63.7484C63.7698 6.5158 63.7895 6.89276 63.8074 7.31796C63.8252 7.74316 63.8342 8.27376 63.8342 8.90977V17.7853H66.8463ZM75.3277 17.9783C76.2781 17.9783 77.1249 17.8568 77.8681 17.6138V15.7487C77.4322 15.8487 77.0963 15.8987 76.8605 15.8987C76.4103 15.8987 76.078 15.7647 75.8636 15.4968C75.6492 15.2288 75.542 14.8125 75.542 14.248V8.22374H77.7395V6.18708H75.542V3.46438H73.6555L72.7122 6.18708H71.0936V8.22374H72.5621V15.0626C72.5621 16.0417 72.8015 16.7724 73.2803 17.2547C73.7591 17.7371 74.4415 17.9783 75.3277 17.9783ZM82.6621 4.09682V1.87793H79.65V4.09682H82.6621ZM82.6621 17.7853V6.18708H79.65V17.7853H82.6621ZM88.7424 17.7853V11.5681C88.7424 10.5891 88.9657 9.78696 89.4123 9.16167C89.859 8.53638 90.4467 8.22374 91.1756 8.22374C92.5548 8.22374 93.2445 9.24207 93.2445 11.2787V17.7853H96.2458V10.4212C96.2458 8.96337 95.9171 7.85571 95.2597 7.09821C94.6022 6.34072 93.6589 5.96197 92.4298 5.96197C91.5794 5.96197 90.8469 6.16206 90.2323 6.56225C89.6178 6.96244 89.1068 7.60559 88.6995 8.49172H88.6566C88.6566 8.27019 88.6387 7.86464 88.603 7.27508C88.5673 6.68552 88.5387 6.32285 88.5173 6.18708H85.6445C85.6659 6.50151 85.6856 6.85703 85.7034 7.25364C85.7213 7.65026 85.7302 8.15942 85.7302 8.78114V17.7853H88.7424ZM104.245 17.9997C106.089 17.9997 107.532 17.4655 108.575 16.3972C109.619 15.3288 110.14 13.8549 110.14 11.9755C110.14 10.0389 109.642 8.55425 108.645 7.52162C107.648 6.489 106.203 5.97269 104.309 5.97269C102.458 5.97269 101.018 6.50687 99.9893 7.57522C98.9603 8.64357 98.4457 10.1103 98.4457 11.9755C98.4457 13.8478 98.9603 15.3199 99.9893 16.3918C101.018 17.4637 102.437 17.9997 104.245 17.9997ZM104.213 15.9416C103.369 15.9416 102.725 15.604 102.278 14.9286C101.831 14.2533 101.608 13.2689 101.608 11.9755C101.608 9.35283 102.523 8.04151 104.352 8.04151C105.21 8.04151 105.863 8.35237 106.314 8.97408C106.764 9.5958 106.989 10.5963 106.989 11.9755C106.989 14.6196 106.064 15.9416 104.213 15.9416Z" fill="#BCBCBC"/>
<path opacity="0.595853" d="M63.17 27.2442C63.3987 27.2442 63.6105 27.2077 63.8055 27.1346C64.0004 27.0615 64.1644 26.964 64.2975 26.8422C64.4306 26.7203 64.5412 26.5966 64.6293 26.471C64.7174 26.3454 64.7895 26.2152 64.8458 26.0802L64.1822 25.8722C64.0997 26.0783 63.9676 26.2527 63.7858 26.3951C63.604 26.5376 63.395 26.6088 63.1588 26.6088C62.7952 26.6088 62.5046 26.457 62.2872 26.1533C62.0698 25.8497 61.961 25.4373 61.961 24.9162C61.961 24.4026 62.0688 23.9931 62.2844 23.6875C62.4999 23.382 62.7914 23.2292 63.1588 23.2292C63.5449 23.2292 63.8579 23.4448 64.0979 23.8759L64.7333 23.6678C64.6021 23.3642 64.4025 23.1093 64.1344 22.9031C63.8664 22.6969 63.5449 22.5938 63.17 22.5938C62.589 22.5938 62.1147 22.8028 61.7474 23.2208C61.38 23.6388 61.1963 24.2039 61.1963 24.9162C61.1963 25.6397 61.3828 26.2086 61.7558 26.6229C62.1288 27.0371 62.6002 27.2442 63.17 27.2442ZM66.6733 27.2442C66.8982 27.2442 67.0997 27.2067 67.2778 27.1318C67.4559 27.0568 67.5993 26.9602 67.708 26.8422C67.8167 26.7241 67.9067 26.5872 67.9779 26.4317C68.0491 26.2761 68.0988 26.1233 68.1269 25.9734C68.155 25.8234 68.1691 25.6735 68.1691 25.5235C68.1691 25.0399 68.0416 24.6313 67.7867 24.2977C67.5318 23.964 67.1607 23.7972 66.6733 23.7972C66.1822 23.7972 65.8092 23.964 65.5543 24.2977C65.2994 24.6313 65.1719 25.0399 65.1719 25.5235C65.1719 25.681 65.186 25.8356 65.2141 25.9874C65.2422 26.1393 65.2928 26.293 65.3659 26.4485C65.439 26.6041 65.5309 26.7391 65.6414 26.8534C65.752 26.9677 65.8964 27.0615 66.0744 27.1346C66.2525 27.2077 66.4521 27.2442 66.6733 27.2442ZM66.6733 26.6369C66.4671 26.6369 66.2872 26.5451 66.1335 26.3614C65.9798 26.1777 65.9029 25.8984 65.9029 25.5235C65.9029 25.1411 65.9807 24.859 66.1363 24.6772C66.2919 24.4954 66.4709 24.4045 66.6733 24.4045C66.8757 24.4045 67.0538 24.4954 67.2075 24.6772C67.3612 24.859 67.4381 25.1411 67.4381 25.5235C67.4381 25.8984 67.3612 26.1777 67.2075 26.3614C67.0538 26.5451 66.8757 26.6369 66.6733 26.6369ZM69.5243 27.143V22.5488H68.8158V27.143H69.5243ZM71.6724 27.2442C71.8973 27.2442 72.0988 27.2067 72.2768 27.1318C72.4549 27.0568 72.5983 26.9602 72.707 26.8422C72.8157 26.7241 72.9057 26.5872 72.9769 26.4317C73.0482 26.2761 73.0978 26.1233 73.126 25.9734C73.1541 25.8234 73.1681 25.6735 73.1681 25.5235C73.1681 25.0399 73.0407 24.6313 72.7858 24.2977C72.5308 23.964 72.1597 23.7972 71.6724 23.7972C71.1813 23.7972 70.8083 23.964 70.5533 24.2977C70.2984 24.6313 70.171 25.0399 70.171 25.5235C70.171 25.681 70.185 25.8356 70.2131 25.9874C70.2412 26.1393 70.2919 26.293 70.365 26.4485C70.4381 26.6041 70.5299 26.7391 70.6405 26.8534C70.7511 26.9677 70.8954 27.0615 71.0735 27.1346C71.2515 27.2077 71.4512 27.2442 71.6724 27.2442ZM71.6724 26.6369C71.4662 26.6369 71.2862 26.5451 71.1325 26.3614C70.9788 26.1777 70.902 25.8984 70.902 25.5235C70.902 25.1411 70.9798 24.859 71.1353 24.6772C71.2909 24.4954 71.4699 24.4045 71.6724 24.4045C71.8748 24.4045 72.0529 24.4954 72.2066 24.6772C72.3603 24.859 72.4371 25.1411 72.4371 25.5235C72.4371 25.8984 72.3603 26.1777 72.2066 26.3614C72.0529 26.5451 71.8748 26.6369 71.6724 26.6369ZM74.4671 27.143V25.4898C74.4671 25.1749 74.5318 24.9228 74.6611 24.7334C74.7904 24.5441 74.9769 24.4495 75.2206 24.4495C75.3593 24.4495 75.4999 24.472 75.6423 24.517V23.8703C75.5336 23.8216 75.3931 23.7972 75.2206 23.7972C75.0369 23.7972 74.8785 23.8422 74.7454 23.9321C74.6124 24.0221 74.5102 24.1271 74.439 24.247V23.8984H73.7529V27.143H74.4671ZM77.1775 27.2442C77.5861 27.2442 77.9019 27.1514 78.125 26.9659C78.3481 26.7803 78.4596 26.5544 78.4596 26.2883C78.4596 25.8572 78.1259 25.5348 77.4586 25.3211C77.4399 25.3136 77.4099 25.3042 77.3687 25.293C77.2112 25.2405 77.0894 25.1974 77.0032 25.1636C76.9169 25.1299 76.8335 25.0765 76.7529 25.0034C76.6723 24.9303 76.632 24.8469 76.632 24.7531C76.632 24.6407 76.678 24.5498 76.7698 24.4804C76.8616 24.4111 76.9938 24.3764 77.1662 24.3764C77.4811 24.3764 77.7492 24.5282 77.9704 24.8319L78.4427 24.5451C78.3265 24.3276 78.1503 24.1486 77.9141 24.0081C77.678 23.8675 77.4268 23.7972 77.1606 23.7972C76.8045 23.7972 76.5064 23.8834 76.2665 24.0559C76.0266 24.2283 75.9066 24.457 75.9066 24.7419C75.9066 24.8881 75.9329 25.0165 75.9854 25.1271C76.0378 25.2377 76.1147 25.3295 76.2159 25.4026C76.3171 25.4757 76.4137 25.5338 76.5055 25.5769C76.5974 25.62 76.7108 25.6641 76.8457 25.7091C76.8607 25.7128 76.8851 25.7203 76.9188 25.7316C77.1063 25.7916 77.2468 25.8394 77.3406 25.875C77.4343 25.9106 77.5233 25.964 77.6077 26.0352C77.692 26.1065 77.7342 26.1889 77.7342 26.2826C77.7342 26.3989 77.6826 26.4916 77.5795 26.561C77.4765 26.6304 77.3368 26.665 77.1606 26.665C76.8007 26.665 76.5083 26.5001 76.2834 26.1702L75.7717 26.4682C75.9029 26.7081 76.0913 26.8975 76.3368 27.0362C76.5824 27.1749 76.8626 27.2442 77.1775 27.2442ZM81.7379 27.2442C81.9628 27.2442 82.1643 27.2067 82.3424 27.1318C82.5205 27.0568 82.6639 26.9602 82.7726 26.8422C82.8813 26.7241 82.9713 26.5872 83.0425 26.4317C83.1137 26.2761 83.1634 26.1233 83.1915 25.9734C83.2196 25.8234 83.2337 25.6735 83.2337 25.5235C83.2337 25.0399 83.1062 24.6313 82.8513 24.2977C82.5964 23.964 82.2253 23.7972 81.7379 23.7972C81.2468 23.7972 80.8738 23.964 80.6189 24.2977C80.364 24.6313 80.2365 25.0399 80.2365 25.5235C80.2365 25.681 80.2506 25.8356 80.2787 25.9874C80.3068 26.1393 80.3574 26.293 80.4305 26.4485C80.5036 26.6041 80.5955 26.7391 80.7061 26.8534C80.8166 26.9677 80.961 27.0615 81.139 27.1346C81.3171 27.2077 81.5167 27.2442 81.7379 27.2442ZM81.7379 26.6369C81.5317 26.6369 81.3518 26.5451 81.1981 26.3614C81.0444 26.1777 80.9675 25.8984 80.9675 25.5235C80.9675 25.1411 81.0453 24.859 81.2009 24.6772C81.3565 24.4954 81.5355 24.4045 81.7379 24.4045C81.9404 24.4045 82.1184 24.4954 82.2721 24.6772C82.4258 24.859 82.5027 25.1411 82.5027 25.5235C82.5027 25.8984 82.4258 26.1777 82.2721 26.3614C82.1184 26.5451 81.9404 26.6369 81.7379 26.6369ZM84.7801 27.143V24.5057H85.4549V23.8984H84.7801V23.6004C84.7801 23.4429 84.8073 23.3286 84.8616 23.2574C84.916 23.1861 85.0013 23.1505 85.1175 23.1505H85.528V22.5488H85.0163C84.7126 22.5488 84.4774 22.6322 84.3105 22.7991C84.1437 22.9659 84.0603 23.2161 84.0603 23.5498V23.8984H83.5655V24.5057H84.0603V27.143H84.7801ZM87.5298 28.4701C87.811 28.4701 88.0462 28.4026 88.2356 28.2676C88.4249 28.1327 88.5795 27.9003 88.6995 27.5704L90.0434 23.8984H89.2674L88.7557 25.5685C88.6357 25.9996 88.5664 26.2489 88.5476 26.3164H88.5251C88.4764 26.1252 88.4052 25.8759 88.3115 25.5685L87.7548 23.8984H86.9731L88.1878 27.0643L88.0809 27.3848C88.0172 27.5647 87.9319 27.6913 87.8251 27.7644C87.7182 27.8375 87.5804 27.874 87.4118 27.874H87.3105V28.4701H87.5298ZM91.7866 27.2442C92.0115 27.2442 92.213 27.2067 92.3911 27.1318C92.5692 27.0568 92.7126 26.9602 92.8213 26.8422C92.93 26.7241 93.02 26.5872 93.0912 26.4317C93.1624 26.2761 93.2121 26.1233 93.2402 25.9734C93.2683 25.8234 93.2824 25.6735 93.2824 25.5235C93.2824 25.0399 93.1549 24.6313 92.9 24.2977C92.6451 23.964 92.274 23.7972 91.7866 23.7972C91.2955 23.7972 90.9225 23.964 90.6676 24.2977C90.4127 24.6313 90.2852 25.0399 90.2852 25.5235C90.2852 25.681 90.2993 25.8356 90.3274 25.9874C90.3555 26.1393 90.4061 26.293 90.4792 26.4485C90.5523 26.6041 90.6442 26.7391 90.7548 26.8534C90.8653 26.9677 91.0097 27.0615 91.1877 27.1346C91.3658 27.2077 91.5654 27.2442 91.7866 27.2442ZM91.7866 26.6369C91.5804 26.6369 91.4005 26.5451 91.2468 26.3614C91.0931 26.1777 91.0162 25.8984 91.0162 25.5235C91.0162 25.1411 91.094 24.859 91.2496 24.6772C91.4052 24.4954 91.5842 24.4045 91.7866 24.4045C91.9891 24.4045 92.1671 24.4954 92.3208 24.6772C92.4745 24.859 92.5514 25.1411 92.5514 25.5235C92.5514 25.8984 92.4745 26.1777 92.3208 26.3614C92.1671 26.5451 91.9891 26.6369 91.7866 26.6369ZM94.9188 27.2442C95.1399 27.2442 95.3246 27.1936 95.4726 27.0924C95.6207 26.9912 95.721 26.8825 95.7735 26.7662H95.7791V27.143H96.4651V23.8984H95.7566V25.7147C95.7566 25.9659 95.6966 26.1824 95.5767 26.3642C95.4567 26.546 95.2899 26.6369 95.0762 26.6369C94.7201 26.6369 94.542 26.3839 94.542 25.8778V23.8984H93.8278V25.9677C93.8278 26.2114 93.8616 26.4214 93.9291 26.5975C93.9965 26.7737 94.0865 26.9059 94.199 26.994C94.3114 27.0821 94.4267 27.1458 94.5448 27.1852C94.6629 27.2245 94.7875 27.2442 94.9188 27.2442ZM97.9553 27.143V25.4898C97.9553 25.1749 98.02 24.9228 98.1493 24.7334C98.2786 24.5441 98.4651 24.4495 98.7088 24.4495C98.8475 24.4495 98.9881 24.472 99.1305 24.517V23.8703C99.0218 23.8216 98.8813 23.7972 98.7088 23.7972C98.5251 23.7972 98.3667 23.8422 98.2336 23.9321C98.1006 24.0221 97.9984 24.1271 97.9272 24.247V23.8984H97.2411V27.143H97.9553ZM101.678 27.143V22.5488H100.969V27.143H101.678ZM103.314 23.4148V22.6332H102.549V23.4148H103.314ZM103.286 27.143V23.8984H102.583V27.143H103.286ZM105.091 27.143V24.5057H105.766V23.8984H105.091V23.6004C105.091 23.4429 105.118 23.3286 105.173 23.2574C105.227 23.1861 105.312 23.1505 105.429 23.1505H105.839V22.5488H105.327C105.024 22.5488 104.788 22.6322 104.622 22.7991C104.455 22.9659 104.371 23.2161 104.371 23.5498V23.8984H103.877V24.5057H104.371V27.143H105.091ZM107.582 27.2442C107.935 27.2442 108.229 27.1636 108.465 27.0024C108.701 26.8412 108.872 26.6407 108.977 26.4007L108.381 26.1983C108.31 26.337 108.205 26.4504 108.069 26.5385C107.932 26.6266 107.773 26.6707 107.593 26.6707C107.335 26.6707 107.131 26.5816 106.983 26.4035C106.835 26.2255 106.761 26.0127 106.761 25.7653H109.011C109.022 25.6716 109.027 25.576 109.027 25.4785C109.027 24.9799 108.889 24.5751 108.611 24.2639C108.334 23.9528 107.981 23.7972 107.554 23.7972C107.119 23.7972 106.758 23.9518 106.472 24.2611C106.185 24.5704 106.041 24.9856 106.041 25.5066C106.041 26.0352 106.185 26.457 106.472 26.7719C106.758 27.0868 107.129 27.2442 107.582 27.2442ZM108.302 25.2648H106.773C106.776 25.0249 106.848 24.8159 106.989 24.6379C107.13 24.4598 107.318 24.3708 107.554 24.3708C107.79 24.3708 107.974 24.4579 108.105 24.6322C108.236 24.8066 108.302 25.0174 108.302 25.2648Z" fill="#BCBCBC"/>
<path d="M6.6508 4.5027L6.6508 26.898C6.6507 27.1123 6.54032 27.3106 6.36061 27.4193C6.18089 27.528 5.95864 27.5309 5.77628 27.427L0.476138 24.4006C0.289064 24.294 0.172962 24.0914 0.172852 23.8716L0.172852 1.47631C0.172959 1.26199 0.283337 1.0637 0.46305 0.954986C0.642764 0.846275 0.865013 0.843353 1.04738 0.947301L6.34752 3.97369C6.53459 4.08032 6.65069 4.28283 6.6508 4.5027Z" fill="#BCBCBC"/>
<path d="M15.2875 4.5027L15.2875 26.898C15.2874 27.1123 15.177 27.3106 14.9973 27.4193C14.8176 27.528 14.5954 27.5309 14.413 27.427L9.11286 24.4006C8.92578 24.294 8.80968 24.0914 8.80957 23.8716L8.80957 1.47631C8.80968 1.26199 8.92006 1.0637 9.09977 0.954986C9.27948 0.846275 9.50173 0.843353 9.68409 0.947301L14.9842 3.97369C15.1713 4.08032 15.2874 4.28283 15.2875 4.5027Z" fill="#BCBCBC"/>
<path d="M23.9252 4.5027L23.9252 26.898C23.9251 27.1123 23.8147 27.3106 23.635 27.4193C23.4553 27.528 23.2331 27.5309 23.0507 27.427L17.7506 24.4006C17.5635 24.294 17.4474 24.0914 17.4473 23.8716L17.4473 1.47631C17.4474 1.26199 17.5578 1.0637 17.7375 0.954986C17.9172 0.846275 18.1394 0.843353 18.3218 0.947301L23.6219 3.97369C23.809 4.08032 23.9251 4.28283 23.9252 4.5027Z" fill="#BCBCBC"/>
</svg>
