<svg width="35" height="33" viewBox="0 0 35 33" fill="none" xmlns="http://www.w3.org/2000/svg">
<path d="M29.2836 32.4492H5.69148C4.8811 32.449 4.08008 32.2749 3.342 31.9384C2.60393 31.6019 1.9458 31.1107 1.41164 30.4979C0.877482 29.885 0.479593 29.1645 0.244596 28.3845C0.00959876 27.6046 -0.0570982 26.7831 0.0489697 25.9752L2.77481 5.41551C2.95752 4.04079 3.6303 2.77951 4.6681 1.86608C5.70591 0.952641 7.03819 0.449169 8.41733 0.449219H26.5896C27.9707 0.450863 29.3041 0.9574 30.3414 1.87445C31.3786 2.7915 32.049 4.05652 32.2276 5.43379L34.9534 25.9934C35.0569 26.8023 34.9875 27.6241 34.7496 28.4037C34.5117 29.1834 34.1109 29.903 33.5741 30.5142C33.0373 31.1255 32.3768 31.6143 31.6368 31.948C30.8969 32.2817 30.0946 32.4526 29.2836 32.4492Z" fill="#4F00A3"/>
<path fill-rule="evenodd" clip-rule="evenodd" d="M21.0098 16.4095L16.4321 12.1547C16.1165 11.8613 15.6279 11.8613 15.3123 12.1547C14.9625 12.4798 14.9622 13.0334 15.3116 13.3589L18.5865 16.4095L15.3116 19.4601C14.9622 19.7856 14.9625 20.3393 15.3123 20.6643C15.6279 20.9577 16.1165 20.9577 16.4321 20.6643L21.0098 16.4095Z" fill="white"/>
<mask id="mask0_109_5831" style="mask-type:luminance" maskUnits="userSpaceOnUse" x="15" y="11" width="7" height="10">
<path fill-rule="evenodd" clip-rule="evenodd" d="M21.0098 16.4095L16.4321 12.1547C16.1165 11.8613 15.6279 11.8613 15.3123 12.1547C14.9625 12.4798 14.9622 13.0334 15.3116 13.3589L18.5865 16.4095L15.3116 19.4601C14.9622 19.7856 14.9625 20.3393 15.3123 20.6643C15.6279 20.9577 16.1165 20.9577 16.4321 20.6643L21.0098 16.4095Z" fill="white"/>
</mask>
<g mask="url(#mask0_109_5831)">
<rect x="8.88867" y="7.62158" width="17.7778" height="17.6552" fill="white"/>
</g>
</svg>
