<svg width="13" height="13" viewBox="0 0 13 13" fill="none" xmlns="http://www.w3.org/2000/svg">
<path d="M3.07838 12.704C3.07838 12.56 3.06238 12.496 2.99838 12.496L2.63038 12.672C2.63038 12.592 2.58238 12.544 2.50238 12.512L2.37438 12.496C2.26238 12.496 2.21438 12.512 2.05438 12.608C2.00638 12.512 1.94238 12.4 1.89438 12.304C1.47838 11.504 1.04638 10.304 0.854375 9.776C0.758375 9.504 0.662375 8.944 0.550375 8.096C0.678375 8.176 0.774375 8.208 0.822375 8.208C0.886375 8.208 0.966375 8.096 1.03038 7.872C1.06238 7.92 1.12638 7.936 1.20638 7.936C1.25438 7.936 1.31838 7.92 1.35038 7.872L1.60638 7.488L1.89438 7.584H1.91038C1.94238 7.584 1.99038 7.536 2.07038 7.488C2.15038 7.44 2.21438 7.408 2.26238 7.408L2.31038 7.424C2.56638 7.552 2.74238 7.776 2.82238 8.128C3.01438 8.944 3.19038 9.344 3.39838 9.344C3.57438 9.344 3.81438 9.136 4.07038 8.736C4.32638 8.336 4.58238 7.792 4.87038 7.136C4.88638 7.264 4.90238 7.328 4.93438 7.328C5.03038 7.328 5.27038 6.768 5.86238 5.824C6.74238 4.4 8.91838 1.664 9.47838 1.28C9.89438 0.992 10.2144 0.719999 10.4384 0.48C10.4064 0.639999 10.3744 0.752 10.3744 0.799999C10.3744 0.848 10.4064 0.863999 10.4384 0.863999L10.8864 0.639999V0.704C10.8864 0.783999 10.9024 0.832 10.9504 0.832C11.0144 0.832 11.2704 0.575999 11.3024 0.48L11.2704 0.704L11.8144 0.384L11.6864 0.672C11.8464 0.559999 11.9744 0.495999 12.0544 0.495999C12.1344 0.495999 12.1824 0.624 12.1824 0.704C12.1824 0.832 12.0704 1.008 11.8944 1.232C11.7024 1.488 11.2224 1.984 9.78238 3.632C9.15838 4.336 6.39038 8.096 5.86238 8.992L4.87038 10.672C4.43837 11.392 4.16638 11.856 4.02238 12.032C3.87838 12.208 3.70238 12.384 3.49438 12.544L3.35038 12.464L3.22238 12.544L3.07838 12.704Z" fill="#F0AD4E"/>
</svg>
