<svg width="35" height="33" viewBox="0 0 35 33" fill="none" xmlns="http://www.w3.org/2000/svg">
<path d="M29.2836 32.4492H5.69148C4.8811 32.449 4.08008 32.2749 3.342 31.9384C2.60393 31.6019 1.9458 31.1107 1.41164 30.4979C0.877482 29.885 0.479593 29.1645 0.244596 28.3845C0.00959876 27.6046 -0.0570982 26.7831 0.0489697 25.9752L2.77481 5.41551C2.95752 4.04079 3.6303 2.77951 4.6681 1.86608C5.70591 0.952641 7.03819 0.449169 8.41733 0.449219H26.5896C27.9707 0.450863 29.3041 0.9574 30.3414 1.87445C31.3786 2.7915 32.049 4.05652 32.2276 5.43379L34.9534 25.9934C35.0569 26.8023 34.9875 27.6241 34.7496 28.4037C34.5117 29.1834 34.1109 29.903 33.5741 30.5142C33.0373 31.1255 32.3768 31.6143 31.6368 31.948C30.8969 32.2817 30.0946 32.4526 29.2836 32.4492Z" fill="#4F00A3"/>
<path fill-rule="evenodd" clip-rule="evenodd" d="M14.5454 16.4889L19.123 20.7437C19.4387 21.0371 19.9273 21.0371 20.2429 20.7437C20.5927 20.4186 20.593 19.865 20.2435 19.5395L16.9686 16.4889L20.2435 13.4383C20.593 13.1128 20.5927 12.5592 20.2429 12.2341C19.9273 11.9407 19.4387 11.9407 19.123 12.2341L14.5454 16.4889Z" fill="white"/>
<mask id="mask0_109_5838" style="mask-type:luminance" maskUnits="userSpaceOnUse" x="14" y="12" width="7" height="9">
<path fill-rule="evenodd" clip-rule="evenodd" d="M14.5454 16.4889L19.123 20.7437C19.4387 21.0371 19.9273 21.0371 20.2429 20.7437C20.5927 20.4186 20.593 19.865 20.2435 19.5395L16.9686 16.4889L20.2435 13.4383C20.593 13.1128 20.5927 12.5592 20.2429 12.2341C19.9273 11.9407 19.4387 11.9407 19.123 12.2341L14.5454 16.4889Z" fill="white"/>
</mask>
<g mask="url(#mask0_109_5838)">
<rect x="26.6665" y="25.2769" width="17.7778" height="17.6552" transform="rotate(180 26.6665 25.2769)" fill="white"/>
</g>
</svg>
