<svg width="60" height="60" viewBox="0 0 60 60" fill="none" xmlns="http://www.w3.org/2000/svg">
<circle opacity="0.2" cx="30" cy="30" r="30" fill="white"/>
<g clip-path="url(#clip0_86_51)">
<g filter="url(#filter0_b_86_51)">
<path fill-rule="evenodd" clip-rule="evenodd" d="M16.5915 18.4351C15 20.6257 15 23.7504 15 30C15 36.2496 15 39.3743 16.5915 41.5649C17.1055 42.2723 17.7277 42.8945 18.4351 43.4085C20.6257 45 23.7504 45 30 45C36.2496 45 39.3743 45 41.5649 43.4085C42.2723 42.8945 42.8945 42.2723 43.4085 41.5649C45 39.3743 45 36.2496 45 30C45 23.7504 45 20.6257 43.4085 18.4351C42.8945 17.7277 42.2723 17.1055 41.5649 16.5915C39.3743 15 36.2496 15 30 15C23.7504 15 20.6257 15 18.4351 16.5915C17.7277 17.1055 17.1055 17.7277 16.5915 18.4351Z" fill="#784CBB"/>
<path fill-rule="evenodd" clip-rule="evenodd" d="M16.5915 18.4351C15 20.6257 15 23.7504 15 30C15 36.2496 15 39.3743 16.5915 41.5649C17.1055 42.2723 17.7277 42.8945 18.4351 43.4085C20.6257 45 23.7504 45 30 45C36.2496 45 39.3743 45 41.5649 43.4085C42.2723 42.8945 42.8945 42.2723 43.4085 41.5649C45 39.3743 45 36.2496 45 30C45 23.7504 45 20.6257 43.4085 18.4351C42.8945 17.7277 42.2723 17.1055 41.5649 16.5915C39.3743 15 36.2496 15 30 15C23.7504 15 20.6257 15 18.4351 16.5915C17.7277 17.1055 17.1055 17.7277 16.5915 18.4351Z" stroke="url(#paint0_linear_86_51)" stroke-linecap="round"/>
</g>
<g filter="url(#filter1_d_86_51)">
<path fill-rule="evenodd" clip-rule="evenodd" d="M39.2645 25.8338C39.725 25.3195 39.6813 24.5292 39.167 24.0687C38.6526 23.6082 37.8624 23.6519 37.4019 24.1662L31.7866 30.4382C30.6488 31.7091 29.8825 32.5605 29.2274 33.1111C28.6033 33.6357 28.2367 33.75 27.9165 33.75C27.5963 33.75 27.2297 33.6357 26.6056 33.1111C25.9505 32.5605 25.1843 31.7091 24.0464 30.4382L22.5978 28.8202C22.1373 28.3058 21.3471 28.2622 20.8327 28.7227C20.3184 29.1831 20.2747 29.9734 20.7352 30.4877L22.2457 32.1749C23.3055 33.3586 24.1894 34.346 24.9971 35.0249C25.8515 35.743 26.7731 36.25 27.9165 36.25C29.06 36.25 29.9815 35.743 30.8359 35.0249C31.6436 34.346 32.5275 33.3587 33.5873 32.1749L39.2645 25.8338Z" fill="url(#paint1_linear_86_51)"/>
</g>
</g>
<defs>
<filter id="filter0_b_86_51" x="-9.5" y="-9.5" width="79" height="79" filterUnits="userSpaceOnUse" color-interpolation-filters="sRGB">
<feFlood flood-opacity="0" result="BackgroundImageFix"/>
<feGaussianBlur in="BackgroundImageFix" stdDeviation="12"/>
<feComposite in2="SourceAlpha" operator="in" result="effect1_backgroundBlur_86_51"/>
<feBlend mode="normal" in="SourceGraphic" in2="effect1_backgroundBlur_86_51" result="shape"/>
</filter>
<filter id="filter1_d_86_51" x="17.4165" y="20.75" width="35.1665" height="28.5" filterUnits="userSpaceOnUse" color-interpolation-filters="sRGB">
<feFlood flood-opacity="0" result="BackgroundImageFix"/>
<feColorMatrix in="SourceAlpha" type="matrix" values="0 0 0 0 0 0 0 0 0 0 0 0 0 0 0 0 0 0 127 0" result="hardAlpha"/>
<feOffset dx="5" dy="5"/>
<feGaussianBlur stdDeviation="4"/>
<feColorMatrix type="matrix" values="0 0 0 0 0.470588 0 0 0 0 0.298039 0 0 0 0 0.733333 0 0 0 1 0"/>
<feBlend mode="normal" in2="BackgroundImageFix" result="effect1_dropShadow_86_51"/>
<feBlend mode="normal" in="SourceGraphic" in2="effect1_dropShadow_86_51" result="shape"/>
</filter>
<linearGradient id="paint0_linear_86_51" x1="15" y1="15" x2="45.0152" y2="44.9848" gradientUnits="userSpaceOnUse">
<stop stop-color="white" stop-opacity="0.25"/>
<stop offset="1" stop-color="white" stop-opacity="0"/>
</linearGradient>
<linearGradient id="paint1_linear_86_51" x1="30.1612" y1="38.9131" x2="46.0769" y2="14.9911" gradientUnits="userSpaceOnUse">
<stop stop-color="white"/>
<stop offset="1" stop-color="white" stop-opacity="0.2"/>
</linearGradient>
<clipPath id="clip0_86_51">
<rect width="40" height="40" fill="white" transform="translate(10 10)"/>
</clipPath>
</defs>
</svg>
