<svg width="111" height="29" viewBox="0 0 111 29" fill="none" xmlns="http://www.w3.org/2000/svg">
<path d="M35.843 18.5057V10.4841L41.5871 18.5057H44.7502L39.9044 12.0657C40.8828 11.9307 41.6672 11.7156 42.2577 11.4204C42.8481 11.1252 43.3584 10.6992 43.7886 10.1425C44.5056 9.22314 44.864 8.09287 44.864 6.75173C44.864 5.03946 44.3369 3.68145 43.2825 2.67771C42.2619 1.71614 40.7268 1.23535 38.6771 1.23535H33.3252V18.5057H35.843ZM37.5764 10.1425H35.843V3.55071H38.5126C39.6682 3.55071 40.596 3.84382 41.2961 4.43005C41.9962 5.01627 42.3463 5.79438 42.3463 6.76439C42.3463 7.979 41.8359 8.88153 40.8153 9.47197C40.0478 9.91901 38.9681 10.1425 37.5764 10.1425ZM53.6503 18.8473C55.4976 18.8473 57.0749 18.24 58.3823 17.0254C59.0739 16.3843 59.6222 15.6167 60.0271 14.7227C60.4319 13.8286 60.6344 12.9387 60.6344 12.053C60.6344 9.96962 59.8499 8.25313 58.2811 6.90356C56.9652 5.77329 55.4174 5.20816 53.6377 5.20816C52.4652 5.22503 51.3793 5.48862 50.3797 5.99892C49.3802 6.50923 48.5599 7.21565 47.9189 8.11818C47.0923 9.28218 46.6789 10.5601 46.6789 11.9518C46.6789 12.9809 46.9193 13.9804 47.4001 14.9504C47.7881 15.7433 48.2984 16.4349 48.931 17.0254C50.2384 18.24 51.8115 18.8473 53.6503 18.8473ZM53.6503 16.6331C52.4357 16.6331 51.394 16.2156 50.5252 15.3806C49.5721 14.4527 49.0955 13.3309 49.0955 12.0151C49.0955 10.6992 49.5721 9.58584 50.5252 8.67488C51.394 7.83983 52.4357 7.4223 53.6503 7.4223C54.865 7.43917 55.9151 7.8567 56.8007 8.67488C57.7454 9.56053 58.2178 10.6908 58.2178 12.0657C58.2178 12.6646 58.0892 13.2592 57.8319 13.8496C57.5746 14.4401 57.2267 14.9504 56.7881 15.3806C55.9193 16.2156 54.8734 16.6331 53.6503 16.6331ZM69.2688 18.8473C70.9136 18.8473 72.3391 18.3412 73.5453 17.329C74.5237 16.5024 75.2238 15.4734 75.6456 14.2419H72.9506C72.5964 14.9757 72.0819 15.5577 71.4071 15.9879C70.7323 16.4181 70.0027 16.6331 69.2182 16.6331C67.9952 16.6331 66.9872 16.1397 66.1943 15.1528C65.4436 14.2166 65.0683 13.1664 65.0683 12.0024C65.0683 10.9481 65.3677 9.97806 65.9666 9.0924C66.7342 7.979 67.8518 7.4223 69.3194 7.4223C70.1376 7.4223 70.8272 7.60998 71.3881 7.98533C71.949 8.36068 72.4699 8.98696 72.9506 9.86419H75.6456C75.4684 9.1641 75.169 8.53148 74.7473 7.96635C73.3471 6.12756 71.5336 5.20816 69.3068 5.20816C67.3499 5.20816 65.7262 5.9209 64.4357 7.34639C63.2464 8.65379 62.6517 10.2058 62.6517 12.0024C62.6517 13.9171 63.3012 15.5493 64.6002 16.8988C65.8401 18.1978 67.3963 18.8473 69.2688 18.8473ZM80.6109 11.8126L85.8489 18.5057H88.8728L83.445 11.6608L88.139 5.54977H85.2669L80.6109 11.8126ZM80.6109 11.8126V1.23535H78.1943V18.5057H80.6109V11.8126ZM96.0522 18.8473C97.9079 18.8473 99.4894 18.1767 100.797 16.8356C101.429 16.1861 101.919 15.389 102.265 14.4443H99.8226C99.4093 15.1528 98.8885 15.6948 98.2601 16.0701C97.6317 16.4455 96.9337 16.6331 96.1661 16.6331C94.8756 16.6331 93.7875 16.1228 92.9018 15.1022C92.4295 14.5624 92.0963 13.8876 91.9023 13.0779H102.606C102.657 12.5296 102.682 12.1163 102.682 11.8379C102.682 10.7414 102.437 9.71447 101.948 8.75712C101.459 7.79976 100.772 6.99634 99.8859 6.34686C98.7556 5.52868 97.4988 5.11959 96.1155 5.11959C95.1792 5.11959 94.2725 5.31781 93.3953 5.71425C92.1385 6.28782 91.16 7.16504 90.46 8.34592C89.7936 9.48462 89.4604 10.7035 89.4604 12.0024C89.4604 13.9171 90.1352 15.5535 91.4848 16.9115C92.7669 18.202 94.2894 18.8473 96.0522 18.8473ZM100.278 11.218H91.8897C91.9824 10.5938 92.1005 10.1088 92.2439 9.76297C92.3873 9.41714 92.6108 9.07553 92.9145 8.73814C93.758 7.80187 94.8165 7.33374 96.0902 7.33374C97.5494 7.33374 98.7092 7.96635 99.5696 9.23158C99.9997 9.85575 100.236 10.5179 100.278 11.218ZM107.824 18.5057V11.4204C107.799 9.07553 108.858 7.83983 111 7.7133V5.20816C109.541 5.21659 108.423 5.71847 107.647 6.71378V5.54977H105.408V18.5057H107.824Z" fill="#BCBCBC"/>
<path opacity="0.8" d="M35.3271 27.8627C35.5733 27.8627 35.7979 27.8346 36.0009 27.7785C36.2038 27.7223 36.3777 27.6414 36.5223 27.5356C36.667 27.4298 36.7782 27.2991 36.8559 27.1436C36.9337 26.9882 36.9725 26.8133 36.9725 26.6189C36.9725 26.4635 36.9466 26.3253 36.8948 26.2043C36.843 26.0834 36.7739 25.9798 36.6875 25.8934C36.6011 25.807 36.4986 25.7325 36.3798 25.6699C36.261 25.6073 36.1347 25.5565 36.0009 25.5177C36.0915 25.4788 36.179 25.4302 36.2632 25.3719C36.3474 25.3136 36.4241 25.2413 36.4932 25.1549C36.5623 25.0685 36.6173 24.9692 36.6584 24.8569C36.6994 24.7446 36.7199 24.6129 36.7199 24.4618C36.7199 24.289 36.6854 24.1325 36.6163 23.9921C36.5472 23.8518 36.4478 23.733 36.3183 23.6358C36.1887 23.5387 36.0332 23.4631 35.8519 23.4091C35.6705 23.3551 35.4675 23.3281 35.2429 23.3281H33.3125V27.8627H35.3271ZM35.1587 25.3492H33.8178V23.7881H35.1976C35.5215 23.7881 35.7698 23.855 35.9425 23.9889C36.1153 24.1228 36.2017 24.3041 36.2017 24.533C36.2017 24.8008 36.1045 25.0038 35.9102 25.142C35.7158 25.2802 35.4653 25.3492 35.1587 25.3492ZM35.3401 27.4028H33.8178V25.8027H35.2494C35.6467 25.8027 35.9469 25.8707 36.1498 26.0068C36.3528 26.1428 36.4543 26.3361 36.4543 26.5865C36.4543 26.8457 36.355 27.0465 36.1563 27.189C35.9577 27.3315 35.6856 27.4028 35.3401 27.4028ZM39.1362 27.934C39.4255 27.934 39.6609 27.8703 39.8423 27.7429C40.0237 27.6155 40.1705 27.4611 40.2828 27.2797V27.8627H40.7751V24.5136H40.2828V26.4311C40.2828 26.5865 40.2569 26.7291 40.205 26.8586C40.1532 26.9882 40.083 27.0994 39.9945 27.1922C39.906 27.2851 39.8002 27.3563 39.6771 27.406C39.554 27.4557 39.4212 27.4805 39.2787 27.4805C38.9807 27.4805 38.7518 27.3898 38.592 27.2084C38.4322 27.027 38.3523 26.7809 38.3523 26.4699V24.5136H37.8535V26.593C37.8535 26.7917 37.8827 26.9731 37.941 27.1372C37.9993 27.3013 38.0835 27.4427 38.1936 27.5615C38.3038 27.6802 38.4376 27.772 38.5953 27.8368C38.7529 27.9016 38.9332 27.934 39.1362 27.934ZM42.4788 23.7816V23.231H41.9087V23.7816H42.4788ZM42.4399 27.8627V24.5136H41.9411V27.8627H42.4399ZM44.1436 27.8627V23.1338H43.6448V27.8627H44.1436ZM46.7089 27.934C46.8644 27.934 47.0058 27.9145 47.1332 27.8757C47.2606 27.8368 47.3761 27.7828 47.4798 27.7137C47.5834 27.6446 47.6774 27.5647 47.7616 27.474C47.8458 27.3833 47.9224 27.2883 47.9915 27.189V27.8627H48.4903V23.1338H47.9915V25.1549C47.9268 25.0599 47.8523 24.9692 47.7681 24.8828C47.6838 24.7965 47.5899 24.7209 47.4863 24.6561C47.3826 24.5913 47.266 24.5395 47.1365 24.5006C47.0069 24.4618 46.8644 24.4423 46.7089 24.4423C46.5059 24.4423 46.3094 24.4823 46.1194 24.5622C45.9294 24.6421 45.7588 24.7565 45.6077 24.9055C45.4565 25.0545 45.3356 25.237 45.2449 25.4529C45.1542 25.6688 45.1089 25.915 45.1089 26.1914C45.1089 26.4678 45.1542 26.7139 45.2449 26.9299C45.3356 27.1458 45.4565 27.3283 45.6077 27.4773C45.7588 27.6262 45.9294 27.7396 46.1194 27.8173C46.3094 27.8951 46.5059 27.934 46.7089 27.934ZM46.7996 27.487C46.6398 27.487 46.4887 27.4567 46.3461 27.3963C46.2036 27.3358 46.0784 27.2484 45.9704 27.1339C45.8625 27.0195 45.7772 26.8824 45.7145 26.7226C45.6519 26.5628 45.6206 26.3836 45.6206 26.1849C45.6206 25.9819 45.6519 25.7995 45.7145 25.6375C45.7772 25.4756 45.8614 25.3395 45.9672 25.2294C46.073 25.1193 46.1971 25.0351 46.3397 24.9768C46.4822 24.9185 46.6355 24.8893 46.7996 24.8893C46.9551 24.8893 47.1051 24.9206 47.2498 24.9832C47.3945 25.0459 47.524 25.1333 47.6385 25.2456C47.7529 25.3579 47.8436 25.4939 47.9106 25.6537C47.9775 25.8135 48.011 25.9906 48.011 26.1849C48.011 26.3792 47.9775 26.5574 47.9106 26.7193C47.8436 26.8813 47.7529 27.0184 47.6385 27.1307C47.524 27.243 47.3945 27.3304 47.2498 27.393C47.1051 27.4557 46.9551 27.487 46.7996 27.487ZM52.0662 28.9186C52.3167 28.9186 52.5293 28.8473 52.7042 28.7048C52.8792 28.5623 53.0379 28.3183 53.1804 27.9728L54.5861 24.5136H54.0549L52.9796 27.3056L51.7617 24.5136H51.2111L52.7334 27.8497C52.6341 28.0873 52.5326 28.2514 52.4289 28.3421C52.3253 28.4328 52.1979 28.4781 52.0467 28.4781C51.9388 28.4781 51.8448 28.4684 51.7649 28.4489C51.6851 28.4295 51.6041 28.3982 51.522 28.355L51.3536 28.7502C51.4659 28.8063 51.5782 28.8484 51.6905 28.8765C51.8027 28.9046 51.928 28.9186 52.0662 28.9186ZM56.9052 27.9404C57.1557 27.9404 57.3889 27.894 57.6048 27.8012C57.8208 27.7083 58.0065 27.582 58.1619 27.4222C58.3174 27.2624 58.4394 27.0756 58.5279 26.8619C58.6165 26.6481 58.6607 26.4224 58.6607 26.1849C58.6607 25.9474 58.6175 25.7228 58.5312 25.5112C58.4448 25.2996 58.3239 25.115 58.1684 24.9573C58.0129 24.7997 57.8283 24.6745 57.6145 24.5816C57.4008 24.4888 57.1686 24.4423 56.9182 24.4423C56.6634 24.4423 56.4291 24.4888 56.2153 24.5816C56.0015 24.6745 55.8169 24.8008 55.6614 24.9606C55.506 25.1204 55.385 25.3071 55.2987 25.5209C55.2123 25.7347 55.1691 25.9603 55.1691 26.1979C55.1691 26.4354 55.2123 26.66 55.2987 26.8716C55.385 27.0832 55.506 27.2678 55.6614 27.4254C55.8169 27.5831 56.0004 27.7083 56.2121 27.8012C56.4237 27.894 56.6547 27.9404 56.9052 27.9404ZM56.9182 27.4935C56.7411 27.4935 56.577 27.4589 56.4258 27.3898C56.2747 27.3207 56.144 27.2279 56.0339 27.1113C55.9238 26.9946 55.8374 26.8565 55.7748 26.6967C55.7122 26.5369 55.6809 26.3663 55.6809 26.1849C55.6809 26.0035 55.7111 25.834 55.7716 25.6764C55.832 25.5188 55.9152 25.3806 56.021 25.2618C56.1268 25.143 56.2552 25.0502 56.4064 24.9832C56.5576 24.9163 56.7238 24.8828 56.9052 24.8828C57.0823 24.8828 57.2464 24.9174 57.3975 24.9865C57.5487 25.0556 57.6804 25.1495 57.7927 25.2683C57.905 25.387 57.9924 25.5263 58.055 25.6861C58.1177 25.8459 58.149 26.0165 58.149 26.1979C58.149 26.3792 58.1187 26.5488 58.0583 26.7064C57.9978 26.864 57.9136 27.0011 57.8056 27.1177C57.6977 27.2343 57.5681 27.3261 57.417 27.393C57.2658 27.46 57.0995 27.4935 56.9182 27.4935ZM60.792 27.934C61.0813 27.934 61.3167 27.8703 61.4981 27.7429C61.6795 27.6155 61.8263 27.4611 61.9386 27.2797V27.8627H62.4309V24.5136H61.9386V26.4311C61.9386 26.5865 61.9127 26.7291 61.8608 26.8586C61.809 26.9882 61.7388 27.0994 61.6503 27.1922C61.5618 27.2851 61.456 27.3563 61.3329 27.406C61.2098 27.4557 61.077 27.4805 60.9345 27.4805C60.6365 27.4805 60.4076 27.3898 60.2478 27.2084C60.088 27.027 60.0081 26.7809 60.0081 26.4699V24.5136H59.5093V26.593C59.5093 26.7917 59.5385 26.9731 59.5968 27.1372C59.6551 27.3013 59.7393 27.4427 59.8494 27.5615C59.9596 27.6802 60.0934 27.772 60.2511 27.8368C60.4087 27.9016 60.589 27.934 60.792 27.934ZM64.0504 27.8627V26.5282C64.0504 26.2778 64.0849 26.0564 64.154 25.8642C64.2231 25.6721 64.3181 25.5112 64.4391 25.3816C64.56 25.2521 64.7014 25.1549 64.8634 25.0901C65.0253 25.0254 65.197 24.993 65.3784 24.993H65.4172V24.4553C65.2574 24.451 65.1084 24.4704 64.9703 24.5136C64.8321 24.5568 64.7047 24.6205 64.5881 24.7047C64.4715 24.7889 64.3678 24.8893 64.2771 25.0059C64.1864 25.1225 64.1108 25.2499 64.0504 25.3881V24.5136H63.5516V27.8627H64.0504ZM69.5243 27.934C69.6797 27.934 69.8212 27.9145 69.9486 27.8757C70.076 27.8368 70.1915 27.7828 70.2951 27.7137C70.3988 27.6446 70.4927 27.5647 70.5769 27.474C70.6611 27.3833 70.7378 27.2883 70.8069 27.189V27.8627H71.3057V23.1338H70.8069V25.1549C70.7421 25.0599 70.6676 24.9692 70.5834 24.8828C70.4992 24.7965 70.4053 24.7209 70.3016 24.6561C70.198 24.5913 70.0814 24.5395 69.9518 24.5006C69.8222 24.4618 69.6797 24.4423 69.5243 24.4423C69.3213 24.4423 69.1248 24.4823 68.9348 24.5622C68.7447 24.6421 68.5742 24.7565 68.423 24.9055C68.2718 25.0545 68.1509 25.237 68.0602 25.4529C67.9695 25.6688 67.9242 25.915 67.9242 26.1914C67.9242 26.4678 67.9695 26.7139 68.0602 26.9299C68.1509 27.1458 68.2718 27.3283 68.423 27.4773C68.5742 27.6262 68.7447 27.7396 68.9348 27.8173C69.1248 27.8951 69.3213 27.934 69.5243 27.934ZM69.6149 27.487C69.4552 27.487 69.304 27.4567 69.1615 27.3963C69.019 27.3358 68.8937 27.2484 68.7858 27.1339C68.6778 27.0195 68.5925 26.8824 68.5299 26.7226C68.4673 26.5628 68.436 26.3836 68.436 26.1849C68.436 25.9819 68.4673 25.7995 68.5299 25.6375C68.5925 25.4756 68.6767 25.3395 68.7825 25.2294C68.8883 25.1193 69.0125 25.0351 69.155 24.9768C69.2975 24.9185 69.4508 24.8893 69.6149 24.8893C69.7704 24.8893 69.9205 24.9206 70.0652 24.9832C70.2098 25.0459 70.3394 25.1333 70.4538 25.2456C70.5683 25.3579 70.659 25.4939 70.7259 25.6537C70.7929 25.8135 70.8263 25.9906 70.8263 26.1849C70.8263 26.3792 70.7929 26.5574 70.7259 26.7193C70.659 26.8813 70.5683 27.0184 70.4538 27.1307C70.3394 27.243 70.2098 27.3304 70.0652 27.393C69.9205 27.4557 69.7704 27.487 69.6149 27.487ZM72.9187 27.8627V26.5282C72.9187 26.2778 72.9532 26.0564 73.0223 25.8642C73.0914 25.6721 73.1865 25.5112 73.3074 25.3816C73.4283 25.2521 73.5697 25.1549 73.7317 25.0901C73.8936 25.0254 74.0653 24.993 74.2467 24.993H74.2855V24.4553C74.1258 24.451 73.9768 24.4704 73.8386 24.5136C73.7004 24.5568 73.573 24.6205 73.4564 24.7047C73.3398 24.7889 73.2361 24.8893 73.1454 25.0059C73.0547 25.1225 72.9792 25.2499 72.9187 25.3881V24.5136H72.4199V27.8627H72.9187ZM76.5075 27.9404C76.8271 27.9404 77.0948 27.8832 77.3107 27.7688C77.5267 27.6543 77.7189 27.5021 77.8873 27.3121L77.5763 27.0335C77.4382 27.176 77.2859 27.2905 77.1197 27.3768C76.9534 27.4632 76.7536 27.5064 76.5204 27.5064C76.3736 27.5064 76.2333 27.4816 76.0994 27.4319C75.9655 27.3822 75.8446 27.3088 75.7366 27.2117C75.6286 27.1145 75.5401 26.9957 75.471 26.8554C75.4019 26.715 75.3587 26.5541 75.3415 26.3728H77.9974C78.0017 26.3425 78.0039 26.3145 78.0039 26.2886V26.2173C78.0039 25.9711 77.9693 25.7401 77.9002 25.5242C77.8311 25.3082 77.7297 25.1204 77.5958 24.9606C77.4619 24.8008 77.2978 24.6745 77.1035 24.5816C76.9091 24.4888 76.6889 24.4423 76.4427 24.4423C76.2095 24.4423 75.9947 24.4877 75.7982 24.5784C75.6017 24.6691 75.4321 24.7932 75.2896 24.9509C75.1471 25.1085 75.0359 25.2942 74.956 25.508C74.8761 25.7217 74.8362 25.9495 74.8362 26.1914C74.8362 26.4505 74.8804 26.688 74.969 26.904C75.0575 27.1199 75.1773 27.3045 75.3285 27.4578C75.4797 27.6111 75.6567 27.7299 75.8597 27.8141C76.0627 27.8983 76.2786 27.9404 76.5075 27.9404ZM77.4986 26.0035H75.3415C75.3587 25.8394 75.3976 25.6883 75.4581 25.5501C75.5185 25.4119 75.5963 25.292 75.6913 25.1905C75.7863 25.089 75.8964 25.0092 76.0216 24.9509C76.1469 24.8926 76.2829 24.8634 76.4297 24.8634C76.5982 24.8634 76.7461 24.8947 76.8735 24.9573C77.0009 25.02 77.1089 25.1031 77.1974 25.2067C77.2859 25.3104 77.355 25.4313 77.4047 25.5695C77.4543 25.7077 77.4857 25.8524 77.4986 26.0035ZM79.876 27.934C80.174 27.934 80.4213 27.8756 80.6177 27.759C80.8142 27.6424 80.9708 27.5086 81.0874 27.3574V27.8627H81.5668V25.8157C81.5668 25.3708 81.4437 25.0351 81.1975 24.8083C80.9514 24.5816 80.5994 24.4682 80.1416 24.4682C79.8955 24.4682 79.6774 24.4931 79.4873 24.5427C79.2973 24.5924 79.1095 24.6604 78.9238 24.7468L79.0728 25.1549C79.2282 25.0815 79.3869 25.0221 79.5489 24.9768C79.7108 24.9314 79.8911 24.9087 80.0898 24.9087C80.4051 24.9087 80.6501 24.9854 80.825 25.1387C80.9999 25.292 81.0874 25.5198 81.0874 25.8221V25.9387C80.9362 25.8956 80.7808 25.861 80.621 25.8351C80.4612 25.8092 80.2733 25.7962 80.0574 25.7962C79.8458 25.7962 79.6525 25.82 79.4776 25.8675C79.3027 25.915 79.1516 25.9841 79.0242 26.0748C78.8968 26.1655 78.7985 26.2788 78.7294 26.4149C78.6603 26.5509 78.6258 26.7075 78.6258 26.8845C78.6258 27.0616 78.6614 27.2149 78.7327 27.3445C78.8039 27.474 78.8989 27.5831 79.0177 27.6716C79.1365 27.7601 79.2703 27.826 79.4193 27.8692C79.5683 27.9124 79.7205 27.934 79.876 27.934ZM79.9732 27.5388C79.8609 27.5388 79.754 27.5237 79.6525 27.4935C79.551 27.4632 79.4614 27.419 79.3837 27.3607C79.306 27.3024 79.2444 27.2322 79.1991 27.1501C79.1537 27.0681 79.1311 26.9731 79.1311 26.8651C79.1311 26.6492 79.2153 26.4786 79.3837 26.3533C79.5521 26.2281 79.794 26.1655 80.1092 26.1655C80.3165 26.1655 80.5011 26.1806 80.6631 26.2108C80.825 26.241 80.9686 26.2734 81.0939 26.308V26.6319C81.0939 26.7658 81.0647 26.8878 81.0064 26.9979C80.9481 27.108 80.8682 27.203 80.7667 27.2829C80.6653 27.3628 80.5465 27.4254 80.4105 27.4708C80.2744 27.5161 80.1287 27.5388 79.9732 27.5388ZM83.128 27.8627V25.9517C83.128 25.7962 83.1517 25.6548 83.1992 25.5274C83.2467 25.4 83.3126 25.2888 83.3968 25.1938C83.481 25.0988 83.5793 25.0254 83.6915 24.9735C83.8038 24.9217 83.9269 24.8958 84.0608 24.8958C84.3285 24.8958 84.5391 24.9832 84.6924 25.1581C84.8457 25.3331 84.9223 25.5781 84.9223 25.8934V27.8627H85.4147V25.9323C85.4147 25.7682 85.4395 25.6213 85.4892 25.4918C85.5388 25.3622 85.6058 25.2532 85.69 25.1646C85.7742 25.0761 85.8724 25.0092 85.9847 24.9638C86.097 24.9185 86.2158 24.8958 86.341 24.8958C86.6131 24.8958 86.8258 24.9832 86.9791 25.1581C87.1324 25.3331 87.2091 25.5825 87.2091 25.9064V27.8627H87.7079V25.7897C87.7079 25.3708 87.5977 25.0415 87.3775 24.8019C87.1572 24.5622 86.8528 24.4423 86.4641 24.4423C86.3173 24.4423 86.1845 24.4596 86.0657 24.4942C85.9469 24.5287 85.8401 24.5762 85.745 24.6367C85.65 24.6971 85.5647 24.7684 85.4892 24.8504C85.4136 24.9325 85.3456 25.0189 85.2851 25.1096C85.1944 24.9195 85.0605 24.7608 84.8835 24.6334C84.7064 24.506 84.4818 24.4423 84.2098 24.4423C84.0673 24.4423 83.942 24.4596 83.834 24.4942C83.7261 24.5287 83.6289 24.5751 83.5425 24.6334C83.4562 24.6917 83.3795 24.7598 83.3126 24.8375C83.2456 24.9152 83.1841 24.9951 83.128 25.0772V24.5136H82.6291V27.8627H83.128ZM91.2319 27.8627V25.9452C91.2319 25.7897 91.2567 25.6472 91.3064 25.5177C91.356 25.3881 91.4262 25.2769 91.5169 25.1841C91.6076 25.0912 91.7145 25.02 91.8376 24.9703C91.9606 24.9206 92.0934 24.8958 92.236 24.8958C92.5339 24.8958 92.7628 24.9865 92.9226 25.1679C93.0824 25.3492 93.1623 25.5954 93.1623 25.9064V27.8627H93.6611V25.7833C93.6611 25.5846 93.6319 25.4032 93.5736 25.2391C93.5153 25.075 93.4311 24.9336 93.321 24.8148C93.2109 24.6961 93.077 24.6043 92.9194 24.5395C92.7617 24.4747 92.5814 24.4423 92.3785 24.4423C92.0891 24.4423 91.8538 24.506 91.6724 24.6334C91.491 24.7608 91.3442 24.9152 91.2319 25.0966V23.1338H90.7331V27.8627H91.2319ZM96.2523 27.9404C96.5028 27.9404 96.736 27.894 96.9519 27.8012C97.1678 27.7083 97.3535 27.582 97.509 27.4222C97.6645 27.2624 97.7865 27.0756 97.875 26.8619C97.9635 26.6481 98.0078 26.4224 98.0078 26.1849C98.0078 25.9474 97.9646 25.7228 97.8782 25.5112C97.7919 25.2996 97.671 25.115 97.5155 24.9573C97.36 24.7997 97.1754 24.6745 96.9616 24.5816C96.7478 24.4888 96.5157 24.4423 96.2652 24.4423C96.0104 24.4423 95.7762 24.4888 95.5624 24.5816C95.3486 24.6745 95.164 24.8008 95.0085 24.9606C94.853 25.1204 94.7321 25.3071 94.6457 25.5209C94.5594 25.7347 94.5162 25.9603 94.5162 26.1979C94.5162 26.4354 94.5594 26.66 94.6457 26.8716C94.7321 27.0832 94.853 27.2678 95.0085 27.4254C95.164 27.5831 95.3475 27.7083 95.5591 27.8012C95.7708 27.894 96.0018 27.9404 96.2523 27.9404ZM96.2652 27.4935C96.0882 27.4935 95.9241 27.4589 95.7729 27.3898C95.6218 27.3207 95.4911 27.2279 95.381 27.1113C95.2709 26.9946 95.1845 26.8565 95.1219 26.6967C95.0593 26.5369 95.028 26.3663 95.028 26.1849C95.028 26.0035 95.0582 25.834 95.1186 25.6764C95.1791 25.5188 95.2622 25.3806 95.368 25.2618C95.4739 25.143 95.6023 25.0502 95.7535 24.9832C95.9046 24.9163 96.0709 24.8828 96.2523 24.8828C96.4294 24.8828 96.5935 24.9174 96.7446 24.9865C96.8958 25.0556 97.0275 25.1495 97.1398 25.2683C97.252 25.387 97.3395 25.5263 97.4021 25.6861C97.4647 25.8459 97.4961 26.0165 97.4961 26.1979C97.4961 26.3792 97.4658 26.5488 97.4054 26.7064C97.3449 26.864 97.2607 27.0011 97.1527 27.1177C97.0448 27.2343 96.9152 27.3261 96.764 27.393C96.6129 27.46 96.4466 27.4935 96.2652 27.4935ZM99.407 27.8627V25.9517C99.407 25.7962 99.4308 25.6548 99.4783 25.5274C99.5258 25.4 99.5917 25.2888 99.6759 25.1938C99.7601 25.0988 99.8583 25.0254 99.9706 24.9735C100.083 24.9217 100.206 24.8958 100.34 24.8958C100.608 24.8958 100.818 24.9832 100.971 25.1581C101.125 25.3331 101.201 25.5781 101.201 25.8934V27.8627H101.694V25.9323C101.694 25.7682 101.719 25.6213 101.768 25.4918C101.818 25.3622 101.885 25.2532 101.969 25.1646C102.053 25.0761 102.152 25.0092 102.264 24.9638C102.376 24.9185 102.495 24.8958 102.62 24.8958C102.892 24.8958 103.105 24.9832 103.258 25.1581C103.411 25.3331 103.488 25.5825 103.488 25.9064V27.8627H103.987V25.7897C103.987 25.3708 103.877 25.0415 103.657 24.8019C103.436 24.5622 103.132 24.4423 102.743 24.4423C102.596 24.4423 102.464 24.4596 102.345 24.4942C102.226 24.5287 102.119 24.5762 102.024 24.6367C101.929 24.6971 101.844 24.7684 101.768 24.8504C101.693 24.9325 101.625 25.0189 101.564 25.1096C101.474 24.9195 101.34 24.7608 101.163 24.6334C100.986 24.506 100.761 24.4423 100.489 24.4423C100.346 24.4423 100.221 24.4596 100.113 24.4942C100.005 24.5287 99.908 24.5751 99.8216 24.6334C99.7353 24.6917 99.6586 24.7598 99.5917 24.8375C99.5247 24.9152 99.4632 24.9951 99.407 25.0772V24.5136H98.9082V27.8627H99.407ZM106.533 27.9404C106.852 27.9404 107.12 27.8832 107.336 27.7688C107.552 27.6543 107.744 27.5021 107.913 27.3121L107.602 27.0335C107.463 27.176 107.311 27.2905 107.145 27.3768C106.979 27.4632 106.779 27.5064 106.546 27.5064C106.399 27.5064 106.259 27.4816 106.125 27.4319C105.991 27.3822 105.87 27.3088 105.762 27.2117C105.654 27.1145 105.565 26.9957 105.496 26.8554C105.427 26.715 105.384 26.5541 105.367 26.3728H108.023C108.027 26.3425 108.029 26.3145 108.029 26.2886V26.2173C108.029 25.9711 107.995 25.7401 107.926 25.5242C107.856 25.3082 107.755 25.1204 107.621 24.9606C107.487 24.8008 107.323 24.6745 107.129 24.5816C106.934 24.4888 106.714 24.4423 106.468 24.4423C106.235 24.4423 106.02 24.4877 105.823 24.5784C105.627 24.6691 105.457 24.7932 105.315 24.9509C105.172 25.1085 105.061 25.2942 104.981 25.508C104.901 25.7217 104.861 25.9495 104.861 26.1914C104.861 26.4505 104.906 26.688 104.994 26.904C105.083 27.1199 105.203 27.3045 105.354 27.4578C105.505 27.6111 105.682 27.7299 105.885 27.8141C106.088 27.8983 106.304 27.9404 106.533 27.9404ZM107.524 26.0035H105.367C105.384 25.8394 105.423 25.6883 105.483 25.5501C105.544 25.4119 105.622 25.292 105.717 25.1905C105.812 25.089 105.922 25.0092 106.047 24.9509C106.172 24.8926 106.308 24.8634 106.455 24.8634C106.623 24.8634 106.771 24.8947 106.899 24.9573C107.026 25.02 107.134 25.1031 107.223 25.2067C107.311 25.3104 107.38 25.4313 107.43 25.5695C107.48 25.7077 107.511 25.8524 107.524 26.0035Z" fill="#BCBCBC"/>
<path fill-rule="evenodd" clip-rule="evenodd" d="M12.8777 15.9863V17.4216L0.641602 28.9422V27.5069L12.8777 15.9863ZM13.2376 15.9863L25.4738 27.5069V28.9422L13.2376 17.4216V15.9863ZM12.8777 12.0276V13.4627L0.641602 24.9835V23.5483L12.8777 12.0276ZM13.2376 12.0276L25.4738 23.5483V24.9835L13.2376 13.4629V12.0276ZM12.8777 8.4287V9.86401L0.641602 21.3846V19.9495L12.8777 8.4287ZM13.2376 8.4287L25.4738 19.9495V21.3846L13.2376 9.86403V8.4287ZM12.8777 4.82984V6.265L0.641602 17.7857V16.3506L12.8777 4.82984ZM13.2376 4.82984L25.4738 16.3506V17.7857L13.2376 6.26516V4.82984ZM12.8777 0.871094V2.3064L0.641602 13.827V12.3917L12.8777 0.871094ZM13.2376 0.871094L25.4738 12.3917V13.827L13.2376 2.30642V0.871094Z" fill="#BCBCBC"/>
</svg>
