<svg width="85" height="31" viewBox="0 0 85 31" fill="none" xmlns="http://www.w3.org/2000/svg">
<path d="M44.4497 4.80343C44.2407 3.64692 43.3071 2.16992 40.8408 2.16992C38.9458 2.16992 37.3016 3.47971 37.3016 5.34685C37.3016 6.80992 38.3188 7.92463 39.9909 8.24511L41.3425 8.49592C41.9973 8.62133 42.4014 8.98361 42.4014 9.48523C42.4014 10.0983 41.8719 10.5163 41.008 10.5163C39.6564 10.5163 39.0434 9.7221 38.9598 8.8164L36.9393 9.30409C37.0787 10.6975 38.2491 12.4671 40.9802 12.4671C43.335 12.4671 44.6309 10.8926 44.6309 9.34589C44.6309 7.93856 43.6555 6.72631 41.7744 6.37796L40.4507 6.12715C39.7679 6.00175 39.4753 5.6534 39.4753 5.17965C39.4753 4.63622 40.0048 4.12067 40.8269 4.12067C42.0252 4.12067 42.4014 4.90097 42.4711 5.36079L44.4497 4.80343Z" fill="#BCBCBC"/>
<path d="M52.501 12.2581H54.8976L51.2191 2.37893H48.6692L44.9488 12.2581H47.2619L47.9725 10.2516H51.7904L52.501 12.2581ZM49.9093 4.8313L51.0937 8.24511H48.6971L49.9093 4.8313Z" fill="#BCBCBC"/>
<path d="M62.7337 12.2581H65.1304L61.4518 2.37893H58.9019L55.1815 12.2581H57.4946L58.2052 10.2516H62.0231L62.7337 12.2581ZM60.142 4.8313L61.3264 8.24511H58.9298L60.142 4.8313Z" fill="#BCBCBC"/>
<path d="M73.134 4.80343C72.925 3.64692 71.9914 2.16992 69.5251 2.16992C67.6301 2.16992 65.9859 3.47971 65.9859 5.34685C65.9859 6.80992 67.0031 7.92463 68.6751 8.24511L70.0267 8.49592C70.6816 8.62133 71.0857 8.98361 71.0857 9.48523C71.0857 10.0983 70.5562 10.5163 69.6923 10.5163C68.3407 10.5163 67.7276 9.7221 67.644 8.8164L65.6236 9.30409C65.7629 10.6975 66.9334 12.4671 69.6644 12.4671C72.0193 12.4671 73.3151 10.8926 73.3151 9.34589C73.3151 7.93856 72.3398 6.72631 70.4587 6.37796L69.135 6.12715C68.4522 6.00175 68.1596 5.6534 68.1596 5.17965C68.1596 4.63622 68.6891 4.12067 69.5112 4.12067C70.7095 4.12067 71.0857 4.90097 71.1554 5.36079L73.134 4.80343Z" fill="#BCBCBC"/>
<path d="M45.1325 21.9003V19.7963H36.8418V21.9003H39.8794V29.6755H42.0809V21.9003H45.1325Z" fill="#BCBCBC"/>
<path d="M47.9637 24.7289C47.9637 22.6667 49.4407 21.7331 50.8201 21.7331C52.1856 21.7331 53.6626 22.6667 53.6626 24.7289C53.6626 26.7911 52.1856 27.7108 50.8201 27.7108C49.4407 27.7108 47.9637 26.7911 47.9637 24.7289ZM45.6785 24.7429C45.6785 27.8641 48.0333 29.8845 50.8201 29.8845C53.593 29.8845 55.9478 27.8641 55.9478 24.7429C55.9478 21.6077 53.593 19.5873 50.8201 19.5873C48.0333 19.5873 45.6785 21.6077 45.6785 24.7429Z" fill="#BCBCBC"/>
<path d="M59.7182 27.5993V21.8725H61.0002C62.519 21.8725 63.7591 22.7642 63.7591 24.7429C63.7591 26.7215 62.519 27.5993 61.0002 27.5993H59.7182ZM61.0838 29.6755C64.0656 29.6755 66.0582 27.7944 66.0582 24.7429C66.0582 21.6913 64.0656 19.7963 61.0977 19.7963H57.5167V29.6755H61.0838Z" fill="#BCBCBC"/>
<path d="M73.7012 29.6755H76.0979L72.4193 19.7963H69.8694L66.1491 29.6755H68.4621L69.1727 27.669H72.9906L73.7012 29.6755ZM71.1095 22.2487L72.2939 25.6625H69.8973L71.1095 22.2487Z" fill="#BCBCBC"/>
<path d="M78.5849 25.551V29.6755H80.7864V25.551L84.256 19.7963H81.8036L79.7553 23.4609L77.7349 19.7963H75.1571L78.5849 25.551Z" fill="#BCBCBC"/>
<path fill-rule="evenodd" clip-rule="evenodd" d="M14.8048 0.936523C22.9812 0.936523 29.6096 7.56485 29.6096 15.7413C29.6096 23.9178 22.9812 30.5461 14.8048 30.5461C6.62833 30.5461 0 23.9178 0 15.7413C0 7.56485 6.62833 0.936523 14.8048 0.936523ZM14.8048 7.90348C10.4761 7.90348 6.96696 11.4126 6.96696 15.7413C6.96696 20.07 10.4761 23.5791 14.8048 23.5791C19.1335 23.5791 22.6426 20.07 22.6426 15.7413C22.6426 11.4126 19.1335 7.90348 14.8048 7.90348Z" fill="#BCBCBC"/>
</svg>
