<svg width="56" height="56" viewBox="0 0 56 56" fill="none" xmlns="http://www.w3.org/2000/svg">
<g clip-path="url(#clip0_194_2472)">
<path fill-rule="evenodd" clip-rule="evenodd" d="M2.7998 14.028C2.7998 12.698 3.4998 11.466 4.6618 10.808L22.5118 0.504048C23.0779 0.177199 23.7201 0.00512695 24.3738 0.00512695C25.0275 0.00512695 25.6697 0.177199 26.2358 0.504048L44.0858 10.808C44.6512 11.1345 45.1208 11.6038 45.4476 12.1689C45.7744 12.7341 45.9469 13.3752 45.9478 14.028V22.428L38.9478 18.382C38.3817 18.0552 37.7395 17.8831 37.0858 17.8831C36.4321 17.8831 35.7899 18.0552 35.2238 18.382L21.9098 26.054C21.3418 26.3787 20.8694 26.8472 20.5401 27.4125C20.2107 27.9778 20.0361 28.6198 20.0338 29.274V44.604C20.0338 45.864 20.6638 47.012 21.6998 47.698L4.6618 37.87C4.09643 37.5436 3.6268 37.0743 3.29999 36.5092C2.97319 35.944 2.8007 35.3029 2.7998 34.65V14.028Z" fill="#463C77"/>
<path fill-rule="evenodd" clip-rule="evenodd" d="M21.7002 47.6984L22.5122 48.1744C23.6602 48.8464 25.0882 48.8464 26.2362 48.1744L44.0862 37.8704C44.6516 37.544 45.1212 37.0747 45.448 36.5095C45.7748 35.9444 45.9473 35.3032 45.9482 34.6504V22.4424L52.2062 26.0544C52.7716 26.3808 53.2412 26.8501 53.568 27.4153C53.8948 27.9804 54.0673 28.6215 54.0682 29.2744V44.6044C54.0682 45.9344 53.3682 47.1664 52.2062 47.8244L38.9342 55.4964C37.7862 56.1684 36.3722 56.1684 35.2242 55.4964L21.9102 47.8384L21.7002 47.6984Z" fill="#DABFFF"/>
<path fill-rule="evenodd" clip-rule="evenodd" d="M45.9482 22.4417L38.9482 18.3817C38.3821 18.0549 37.7399 17.8828 37.0862 17.8828C36.4325 17.8828 35.7903 18.0549 35.2242 18.3817L21.9102 26.0537C21.3422 26.3784 20.8698 26.8469 20.5404 27.4122C20.2111 27.9775 20.0365 28.6195 20.0342 29.2737V44.6037C20.0342 45.8637 20.6642 47.0117 21.7002 47.6977L22.5122 48.1737C23.6602 48.8457 25.0882 48.8457 26.2362 48.1737L44.0862 37.8697C44.6516 37.5433 45.1212 37.074 45.448 36.5089C45.7748 35.9437 45.9473 35.3026 45.9482 34.6497V22.4417Z" fill="#DABFFF"/>
</g>
<defs>
<clipPath id="clip0_194_2472">
<rect width="56" height="56" fill="white"/>
</clipPath>
</defs>
</svg>
