<svg width="112" height="112" viewBox="0 0 112 112" fill="none" xmlns="http://www.w3.org/2000/svg">
<path d="M56 112C86.9279 112 112 86.9279 112 56C112 25.0721 86.9279 0 56 0C25.0721 0 0 25.0721 0 56C0 86.9279 25.0721 112 56 112Z" fill="#2E3648"/>
<path d="M80.2667 56.0001C80.2667 42.598 69.4022 31.7334 56.0001 31.7334C42.598 31.7334 31.7334 42.598 31.7334 56.0001C31.7334 69.4022 42.598 80.2667 56.0001 80.2667C69.4022 80.2667 80.2667 69.4022 80.2667 56.0001Z" fill="white"/>
<path d="M43.0791 57.053L55.2769 67.0433" stroke="#221C3F" stroke-width="3.88267"/>
<path d="M70.216 46.2783L52.5742 67.2745" stroke="#221C3F" stroke-width="3.88267"/>
</svg>
