<svg width="40" height="40" viewBox="0 0 40 40" fill="none" xmlns="http://www.w3.org/2000/svg">
<g clip-path="url(#clip0_186_2524)">
<rect opacity="0.1" width="40" height="40" rx="20" fill="#874FFF"/>
<path d="M26.6667 15.8667C26.1656 16.0841 25.6357 16.2278 25.0934 16.2933C25.6655 15.9515 26.0942 15.4139 26.3 14.78C25.7624 15.1 25.1739 15.3255 24.56 15.4467C24.1497 15.0017 23.6034 14.7055 23.0066 14.6046C22.4098 14.5036 21.7964 14.6036 21.2626 14.8888C20.7287 15.174 20.3047 15.6284 20.0569 16.1806C19.8091 16.7328 19.7516 17.3516 19.8934 17.94C18.8063 17.885 17.743 17.602 16.7725 17.1092C15.802 16.6165 14.9459 15.9251 14.26 15.08C14.0195 15.5001 13.8931 15.9759 13.8934 16.46C13.8925 16.9096 14.0029 17.3524 14.2145 17.749C14.4262 18.1457 14.7327 18.4838 15.1067 18.7333C14.672 18.7215 14.2466 18.6049 13.8667 18.3933V18.4267C13.87 19.0566 14.0907 19.6661 14.4916 20.152C14.8925 20.6379 15.4489 20.9704 16.0667 21.0933C15.8289 21.1657 15.582 21.2039 15.3334 21.2067C15.1613 21.2047 14.9897 21.1891 14.82 21.16C14.996 21.7019 15.3365 22.1754 15.7941 22.5148C16.2517 22.8541 16.8038 23.0424 17.3734 23.0533C16.4115 23.8102 15.224 24.2232 14 24.2267C13.7772 24.2274 13.5545 24.214 13.3334 24.1867C14.583 24.9935 16.0392 25.4218 17.5267 25.42C18.5532 25.4307 19.5715 25.2367 20.5221 24.8494C21.4728 24.4621 22.3367 23.8893 23.0635 23.1643C23.7903 22.4394 24.3653 21.5769 24.7551 20.6273C25.1448 19.6776 25.3414 18.6598 25.3334 17.6333C25.3334 17.52 25.3334 17.4 25.3334 17.28C25.8565 16.8899 26.3077 16.4116 26.6667 15.8667Z" fill="#874FFF"/>
</g>
<defs>
<clipPath id="clip0_186_2524">
<rect width="40" height="40" fill="white"/>
</clipPath>
</defs>
</svg>
