<svg width="42" height="40" viewBox="0 0 42 40" fill="none" xmlns="http://www.w3.org/2000/svg">
<rect opacity="0.1" width="40" height="40" rx="20" fill="#CDDAED"/>
<path d="M26.6668 15.8667C26.1657 16.0841 25.6358 16.2278 25.0935 16.2933C25.6656 15.9515 26.0943 15.4139 26.3002 14.78C25.7625 15.1 25.174 15.3255 24.5602 15.4467C24.1499 15.0017 23.6035 14.7055 23.0067 14.6046C22.4099 14.5036 21.7965 14.6036 21.2627 14.8888C20.7289 15.174 20.3048 15.6284 20.057 16.1806C19.8092 16.7328 19.7517 17.3516 19.8935 17.94C18.8064 17.885 17.7431 17.602 16.7726 17.1092C15.8021 16.6165 14.9461 15.9251 14.2602 15.08C14.0196 15.5001 13.8932 15.9759 13.8935 16.46C13.8926 16.9096 14.003 17.3524 14.2147 17.749C14.4264 18.1457 14.7328 18.4838 15.1068 18.7333C14.6721 18.7215 14.2468 18.6049 13.8668 18.3933V18.4267C13.8701 19.0566 14.0908 19.6661 14.4917 20.152C14.8926 20.6379 15.449 20.9704 16.0668 21.0933C15.829 21.1657 15.5821 21.2039 15.3335 21.2067C15.1614 21.2047 14.9898 21.1891 14.8202 21.16C14.9961 21.7019 15.3366 22.1754 15.7942 22.5148C16.2518 22.8541 16.8039 23.0424 17.3735 23.0533C16.4116 23.8102 15.2241 24.2232 14.0002 24.2267C13.7773 24.2274 13.5547 24.214 13.3335 24.1867C14.5831 24.9935 16.0394 25.4218 17.5268 25.42C18.5533 25.4307 19.5716 25.2367 20.5222 24.8494C21.4729 24.4621 22.3368 23.8893 23.0636 23.1643C23.7904 22.4394 24.3655 21.5769 24.7552 20.6273C25.1449 19.6776 25.3415 18.6598 25.3335 17.6333C25.3335 17.52 25.3335 17.4 25.3335 17.28C25.8566 16.8899 26.3078 16.4116 26.6668 15.8667V15.8667Z" fill="#CDDAED"/>
</svg>
