<svg width="480" height="210" viewBox="0 0 480 210" fill="none" xmlns="http://www.w3.org/2000/svg">
<path fill-rule="evenodd" clip-rule="evenodd" d="M24.5 12.5C24.7099 12.3441 24.9099 12.1962 25.1001 12.0557C27.0817 10.5911 28 9.91243 28 9C28 8.08757 27.0817 7.40888 25.1001 5.94433L25.0996 5.94393C24.9095 5.80348 24.7097 5.6558 24.5 5.5L24.2477 5.31275C21.7569 3.4655 21 2.90415 21 0V7H18C8.05887 7 0 15.0589 0 25V185C0 194.941 8.05887 203 18 203H473V210C473 207.096 473.757 206.535 476.248 204.687L476.5 204.5C476.71 204.344 476.91 204.196 477.1 204.056C479.082 202.591 480 201.912 480 201C480 200.088 479.082 199.409 477.1 197.944C476.91 197.804 476.71 197.656 476.5 197.5L476.248 197.313C473.757 195.465 473 194.904 473 192V199H18C10.268 199 4 192.732 4 185V25C4 17.268 10.268 11 18 11H21V18C21 15.0959 21.7569 14.5345 24.2477 12.6872L24.5 12.5Z" fill="#EBE8F0"/>
</svg>
