<svg width="57" height="407" viewBox="0 0 57 407" fill="none" xmlns="http://www.w3.org/2000/svg">
<path fill-rule="evenodd" clip-rule="evenodd" d="M23.5 12.5C23.7099 12.3441 23.9099 12.1962 24.1001 12.0557C26.0817 10.5911 27 9.91243 27 9C27 8.08757 26.0817 7.40888 24.1001 5.94433L24.0996 5.94393C23.9095 5.80348 23.7097 5.6558 23.5 5.5L23.2477 5.31275C20.7569 3.4655 20 2.90415 20 0V7H18C8.05888 7 0 15.0589 0 25V383C0 392.941 8.05888 401 18 401H50V407C50 404.096 50.7569 403.535 53.2477 401.687L53.5 401.5C53.7099 401.344 53.91 401.196 54.1002 401.056C56.0817 399.591 57 398.912 57 398C57 397.088 56.0817 396.409 54.1002 394.944C53.91 394.804 53.7099 394.656 53.5 394.5L53.2477 394.313C50.7569 392.465 50 391.904 50 389V397H18C10.268 397 4 390.732 4 383V25C4 17.268 10.268 11 18 11H20V18C20 15.0959 20.7569 14.5345 23.2477 12.6872L23.5 12.5Z" fill="#EBE8F0"/>
</svg>
