<svg width="354" height="263" viewBox="0 0 354 263" fill="none" xmlns="http://www.w3.org/2000/svg">
<g filter="url(#filter0_b_69_43)">
<path d="M0 238.478V57.3971C0 43.8539 10.9789 32.875 24.5221 32.875H171.938C181.118 32.875 189.529 27.7481 193.735 19.5888L196.984 13.2862C201.19 5.12691 209.6 0 218.78 0H329.478C343.021 0 354 10.9789 354 24.5221V238.478C354 252.021 343.021 263 329.478 263H24.5221C10.9789 263 0 252.021 0 238.478Z" fill="url(#paint0_linear_69_43)" fill-opacity="0.6"/>
<path d="M0.75 238.478V57.3971C0.75 44.2682 11.3931 33.625 24.5221 33.625H171.938C181.398 33.625 190.066 28.3413 194.401 19.9325L197.65 13.6298C201.728 5.7201 209.881 0.75 218.78 0.75H329.478C342.607 0.75 353.25 11.3932 353.25 24.5221V238.478C353.25 251.607 342.607 262.25 329.478 262.25H24.5221C11.3932 262.25 0.75 251.607 0.75 238.478Z" stroke="url(#paint1_linear_69_43)" stroke-opacity="0.6" stroke-width="1.5"/>
<path d="M0.75 238.478V57.3971C0.75 44.2682 11.3931 33.625 24.5221 33.625H171.938C181.398 33.625 190.066 28.3413 194.401 19.9325L197.65 13.6298C201.728 5.7201 209.881 0.75 218.78 0.75H329.478C342.607 0.75 353.25 11.3932 353.25 24.5221V238.478C353.25 251.607 342.607 262.25 329.478 262.25H24.5221C11.3932 262.25 0.75 251.607 0.75 238.478Z" stroke="url(#paint2_linear_69_43)" stroke-width="1.5"/>
</g>
<defs>
<filter id="filter0_b_69_43" x="-140" y="-140" width="634" height="543" filterUnits="userSpaceOnUse" color-interpolation-filters="sRGB">
<feFlood flood-opacity="0" result="BackgroundImageFix"/>
<feGaussianBlur in="BackgroundImageFix" stdDeviation="70"/>
<feComposite in2="SourceAlpha" operator="in" result="effect1_backgroundBlur_69_43"/>
<feBlend mode="normal" in="SourceGraphic" in2="effect1_backgroundBlur_69_43" result="shape"/>
</filter>
<linearGradient id="paint0_linear_69_43" x1="177" y1="0" x2="397.031" y2="219.954" gradientUnits="userSpaceOnUse">
<stop stop-color="white" stop-opacity="0.2"/>
<stop offset="1" stop-color="white" stop-opacity="0"/>
</linearGradient>
<linearGradient id="paint1_linear_69_43" x1="421.884" y1="105.139" x2="301.095" y2="110.299" gradientUnits="userSpaceOnUse">
<stop stop-color="white"/>
<stop offset="1" stop-color="#EFEFEF" stop-opacity="0"/>
</linearGradient>
<linearGradient id="paint2_linear_69_43" x1="0" y1="0" x2="121.523" y2="86.9461" gradientUnits="userSpaceOnUse">
<stop offset="0.484375" stop-color="white" stop-opacity="0.5"/>
<stop offset="1" stop-color="white" stop-opacity="0"/>
</linearGradient>
</defs>
</svg>
