<svg width="317" height="214" viewBox="0 0 317 214" fill="none" xmlns="http://www.w3.org/2000/svg">
<g filter="url(#filter0_d_479_4066)">
<path fill-rule="evenodd" clip-rule="evenodd" d="M162.5 204.5C160.719 202.103 160 201 159 201C158 201 157.281 202.103 155.5 204.5C153.5 207.192 153 208 150 208H159H168C165 208 164.5 207.192 162.5 204.5" fill="#BCBCBC"/>
</g>
<path d="M159 207.5V131.5C159 118.245 148.255 107.5 135 107.5H87C73.7452 107.5 63 96.7548 63 83.5V24.5C63 11.2452 52.2548 0.5 39 0.5H0" stroke="url(#paint0_linear_479_4066)" stroke-linejoin="round"/>
<path d="M64.1036 57.1275L64.1037 57.1276L64.1101 57.1212L64.1212 57.1101L64.1213 57.1102L64.1275 57.1036C64.5255 56.6757 65.0825 56.4272 65.6578 56.4167H74.8333C75.0635 56.4167 75.25 56.2301 75.25 56C75.25 55.7699 75.0635 55.5833 74.8333 55.5833H65.6577C65.0721 55.5728 64.526 55.3248 64.1275 54.8964L64.1276 54.8963L64.1212 54.8899L64.1101 54.8788L64.1102 54.8787L64.1036 54.8725C63.6757 54.4745 63.4272 53.9174 63.4167 53.3422V44.1667C63.4167 43.9365 63.2301 43.75 63 43.75C62.7699 43.75 62.5833 43.9365 62.5833 44.1667V53.3423C62.5728 53.9279 62.3248 54.474 61.8964 54.8725L61.8963 54.8724L61.8899 54.8788L61.8788 54.8899L61.8787 54.8898L61.8725 54.8964C61.4745 55.3243 60.9175 55.5728 60.3422 55.5833H51.1667C50.9365 55.5833 50.75 55.7699 50.75 56C50.75 56.2301 50.9365 56.4167 51.1667 56.4167H60.3423C60.9279 56.4272 61.474 56.6752 61.8725 57.1036L61.8724 57.1037L61.8788 57.1101L61.8899 57.1212L61.8898 57.1213L61.8964 57.1275C62.3243 57.5255 62.5728 58.0825 62.5833 58.6578V67.8333C62.5833 68.0635 62.7699 68.25 63 68.25C63.2301 68.25 63.4167 68.0635 63.4167 67.8333V58.6577C63.4272 58.0721 63.6752 57.526 64.1036 57.1275ZM62.25 56C62.25 55.5825 62.5825 55.25 63 55.25C63.4175 55.25 63.75 55.5825 63.75 56C63.75 56.4175 63.4175 56.75 63 56.75C62.5825 56.75 62.25 56.4175 62.25 56Z" fill="#BCBCBC" stroke="#BCBCBC" stroke-width="0.5" stroke-linejoin="round"/>
<path d="M70 208L317 208" stroke="#BCBCBC" stroke-linejoin="round"/>
<defs>
<filter id="filter0_d_479_4066" x="145" y="197" width="28" height="17" filterUnits="userSpaceOnUse" color-interpolation-filters="sRGB">
<feFlood flood-opacity="0" result="BackgroundImageFix"/>
<feColorMatrix in="SourceAlpha" type="matrix" values="0 0 0 0 0 0 0 0 0 0 0 0 0 0 0 0 0 0 127 0" result="hardAlpha"/>
<feOffset dy="1"/>
<feGaussianBlur stdDeviation="2.5"/>
<feColorMatrix type="matrix" values="0 0 0 0 0 0 0 0 0 0 0 0 0 0 0 0 0 0 0.04 0"/>
<feBlend mode="normal" in2="BackgroundImageFix" result="effect1_dropShadow_479_4066"/>
<feBlend mode="normal" in="SourceGraphic" in2="effect1_dropShadow_479_4066" result="shape"/>
</filter>
<linearGradient id="paint0_linear_479_4066" x1="-14" y1="-5" x2="57" y2="-4.49998" gradientUnits="userSpaceOnUse">
<stop offset="0.29478" stop-color="#BCBCBC" stop-opacity="0"/>
<stop offset="1" stop-color="#BCBCBC"/>
</linearGradient>
</defs>
</svg>
